<svg xmlns="http://www.w3.org/2000/svg" xmlns:xlink="http://www.w3.org/1999/xlink" width="192.01" height="154.24" viewBox="0 0 192.01 154.24">
  <defs>
    <clipPath id="clip-path">
      <rect id="Rectangle_1" data-name="Rectangle 1" width="192.01" height="154.24" fill="#fff"/>
    </clipPath>
  </defs>
  <g id="Group_10" data-name="Group 10" clip-path="url(#clip-path)">
    <path id="Path_134" data-name="Path 134" d="M13.585,60.36H30.273V85.087H14.805c-.039.256-.079.509-.123.765H30.273V105.79a.218.218,0,0,1-.077-.032q-.658-.284-1.316-.6c-.094-.047-.186-.1-.281-.14q-.658-.337-1.316-.714c-.153-.088-.306-.179-.456-.272a27.794,27.794,0,0,1-6.561-5.552c-.058-.059-.11-.123-.164-.179-.266-.315-.528-.633-.781-.958-.1-.12-.187-.241-.281-.357-.3-.4-.589-.808-.868-1.221-.043-.063-.082-.123-.123-.179a27.157,27.157,0,0,1-2.829-5.559c-.023-.059-.044-.123-.066-.179-.227-.626-.432-1.26-.61-1.907-.076-.27-.15-.536-.212-.817-.023-.081-.041-.163-.061-.243A53.5,53.5,0,0,1,13.24,74.708v-1.43q.02-2.508.054-5.01.013-.644.025-1.292.035-1.643.1-3.293c.01-.3.023-.61.038-.912q.01-.263.025-.526Q13.524,61.3,13.585,60.36Z" transform="translate(-1.018 0.094)" fill="#6c63ff" opacity="0.1"/>
    <path id="Path_135" data-name="Path 135" d="M30.929,32.891H21.774a75.863,75.863,0,0,1,4.869-7.282c1.362-1.816,2.8-3.586,4.286-5.291Z" transform="translate(-1.674 0.032)" fill="#6c63ff" opacity="0.1"/>
    <path id="Path_136" data-name="Path 136" d="M30.306,33.632v26H13.671c0-.075.01-.152.016-.227.015-.206.03-.409.046-.615.016-.239.038-.479.059-.715s.043-.522.069-.781.048-.522.074-.781.053-.518.082-.776.056-.518.089-.776c.025-.213.049-.427.077-.642.038-.3.077-.6.118-.9a.932.932,0,0,1,.02-.136q.451-3.3,1.224-6.528a49.647,49.647,0,0,1,5.169-13.124Z" transform="translate(-1.051 0.052)" fill="#6c63ff" opacity="0.1"/>
    <path id="Path_137" data-name="Path 137" d="M36.01,60.454V85.181H71.655V60.454Zm0,25.492v21.236c.2.045.4.089.607.127.271.057.544.109.822.153l.164.025c.109.02.219.036.329.05.275.043.549.075.822.1.128.014.262.025.391.037l.317.025c.173.014.344.025.515.032.105,0,.21.009.317.013s.165,0,.25,0h.914a3.958,3.958,0,0,0,.423-.015h.008a2.412,2.412,0,0,0,.294-.012.587.587,0,0,0,.084,0,1.775,1.775,0,0,0,.243-.011h.056c.183-.012.367-.028.553-.046s.362-.039.548-.061l.373-.05a30.543,30.543,0,0,0,4.514-1.044c3.327-1.009,6.578-2.419,9.9-3.45,4.3-1.331,9.045-1.987,13.2-.367V85.946ZM71.655,32.923V0a42.323,42.323,0,0,0-11.58,1.475C51.048,3.943,42.943,9.29,36.01,16.118v16.8H37.8v.763H36.01v26H71.655v-26H45.143v-.765ZM117.45,21.8a13.891,13.891,0,0,1-6.463-2.041c-3.837-2.268-6.906-5.775-10.333-8.732A45.4,45.4,0,0,0,75.643.225v32.7h50.881l.126-.145Zm4.636-.894L127,26.774V19.366a18.493,18.493,0,0,0-4.916,1.535ZM127,112.455V85.946H116.519c-.026-.113-.055-.227-.089-.341.031.114.059.229.087.341H75.643v19.17c.388.312.771.643,1.151.976q.615.547,1.222,1.107l.408.367c.2.178.395.358.592.527q.594.521,1.2,1.03.3.258.605.506a82.214,82.214,0,0,0,10.137,7.206c.793.481,1.593.943,2.4,1.4q.8.449,1.62.882,1.224.649,2.466,1.252a85.157,85.157,0,0,0,24.01,7.6q2.76.442,5.543.7V112.451h.164ZM75.643,33.684v26H127v-26Zm0,26.766v24.73H127V60.454Zm55.345-41.12v8.276l6.272-7.484A60.742,60.742,0,0,0,130.988,19.33Zm0,41.124V85.181h49.951V60.454Zm49.775,53.962.176-28.47H130.988v43a82.779,82.779,0,0,0,9.653-.127h.056q2.3-.161,4.582-.458h.035a79.008,79.008,0,0,0,23.554-6.839Zm9.813-49.9q-.285-.715-.584-1.43c-.371-.894-.762-1.763-1.168-2.629h-3.9V85.181h9.853A57.463,57.463,0,0,0,190.575,64.515Zm-5.65,21.431v24.489a34.991,34.991,0,0,0,6.809-9.982,36.862,36.862,0,0,0,3.037-14.509Zm0-32.7v6.435h3.533A71.274,71.274,0,0,0,184.926,53.249ZM151.05,24.183c-.259-.109-.521-.218-.783-.322a66.835,66.835,0,0,0-8.436-2.756l-9.6,11.451-.187.22.123.145h34.169A71.187,71.187,0,0,0,151.05,24.183Zm16.289,9.5h-35.65l-.7.7V59.689h49.951V47.427A73.9,73.9,0,0,0,167.338,33.684Z" transform="translate(-2.768 0)" fill="#6c63ff" opacity="0.1"/>
    <path id="Path_138" data-name="Path 138" d="M30.306,46.73V59.616H13.671c0-.075.01-.152.016-.227.015-.206.03-.409.046-.615.016-.239.038-.479.059-.715s.043-.522.069-.781.048-.522.074-.781.053-.518.082-.776.056-.518.089-.776c.025-.213.049-.427.077-.642.038-.3.077-.6.118-.9a.932.932,0,0,1,.02-.136q.451-3.3,1.224-6.528Z" transform="translate(-1.051 0.073)" fill="#6c63ff" opacity="0.1"/>
    <path id="Path_139" data-name="Path 139" d="M13.585,60.36H30.273V85.087H14.805c-.039.256-.079.509-.123.765H30.273V105.79a.218.218,0,0,1-.077-.032q-.658-.284-1.316-.6c-.094-.047-.186-.1-.281-.14q-.658-.337-1.316-.714c-.153-.088-.306-.179-.456-.272a27.794,27.794,0,0,1-6.561-5.552c-.058-.059-.11-.123-.164-.179-.266-.315-.528-.633-.781-.958-.1-.12-.187-.241-.281-.357-.3-.4-.589-.808-.868-1.221-.043-.063-.082-.123-.123-.179a27.157,27.157,0,0,1-2.829-5.559c-.023-.059-.044-.123-.066-.179-.227-.626-.432-1.26-.61-1.907-.076-.27-.15-.536-.212-.817-.023-.081-.041-.163-.061-.243A53.5,53.5,0,0,1,13.24,74.708v-1.43q.02-2.508.054-5.01.013-.644.025-1.292.035-1.643.1-3.293c.01-.3.023-.61.038-.912q.01-.263.025-.526Q13.524,61.3,13.585,60.36Z" transform="translate(-1.018 0.094)" fill="#6c63ff" opacity="0.1"/>
    <path id="Path_140" data-name="Path 140" d="M48.557,37.363v22.28H36.008V37.363H37.8V29.819h7.344v7.543Z" transform="translate(-2.768 0.046)" fill="#6c63ff" opacity="0.1"/>
    <path id="Path_141" data-name="Path 141" d="M48.555,60.358H36.008V85.085H48.555Z" transform="translate(-2.768 0.094)" fill="#6c63ff" opacity="0.1"/>
    <path id="Path_142" data-name="Path 142" d="M36.01,85.812H48.557v20.557a30.28,30.28,0,0,1-4.514,1.042c-.125.02-.248.036-.373.05-.184.023-.367.045-.549.063l-.551.048h-.056l-.243.014h-.084c-.1,0-.2.013-.294.014h-.008c-.141,0-.281.011-.423.015H40.3a2.269,2.269,0,0,1-.319-.015c-.169-.007-.34-.017-.513-.032l-.317-.025c-.132-.01-.263-.025-.393-.039q-.414-.039-.822-.1l-.329-.05-.164-.025c-.275-.044-.548-.094-.822-.151-.2-.04-.4-.084-.607-.131Z" transform="translate(-2.768 0.134)" fill="#6c63ff" opacity="0.1"/>
    <path id="Path_143" data-name="Path 143" d="M133.715,34.724H123.368V59.633h10.347Z" transform="translate(-9.484 0.054)" fill="#6c63ff" opacity="0.1"/>
    <path id="Path_144" data-name="Path 144" d="M130.3,60.358V85.087H78.943V74.421H106.3v6.292h13.654V60.358Z" transform="translate(-6.069 0.094)" fill="#6c63ff" opacity="0.1"/>
    <path id="Path_145" data-name="Path 145" d="M130.465,112.327a.921.921,0,0,1-.164-.01v16.221q-2.78-.248-5.542-.7a85.28,85.28,0,0,1-24.02-7.6q-3.309-1.624-6.485-3.537A82.5,82.5,0,0,1,84.119,109.5q-1.214-1.008-2.391-2.06c-.544-.49-1.084-.991-1.633-1.475-.378-.335-.761-.665-1.151-.98V85.813h40.875c-.03-.114-.055-.227-.085-.341.031.114.061.227.087.341H130.3v26.5C130.356,112.317,130.411,112.322,130.465,112.327Z" transform="translate(-6.069 0.133)" fill="#6c63ff" opacity="0.1"/>
    <path id="Path_146" data-name="Path 146" d="M163.251,32.885h-6.743V30.608h3.021V23.824q.392.157.783.322v6.462h2.936Z" transform="translate(-12.032 0.037)" fill="#6c63ff" opacity="0.1"/>
    <path id="Path_147" data-name="Path 147" d="M178.143,59.637H138.9V34.728h1.74V53.139h7.949v-10.9h6.57v-8.6H161.9V42.24h6.566v10.9h9.679Z" transform="translate(-10.678 0.052)" fill="#6c63ff" opacity="0.1"/>
    <path id="Path_148" data-name="Path 148" d="M138.9,60.36V85.087h39.247V60.36Zm49.895,53.831.056-19.573h-10.7V85.859H138.9v43a82.779,82.779,0,0,0,9.653-.127h.056q2.3-.161,4.582-.458h.035a79.008,79.008,0,0,0,23.554-6.839" transform="translate(-10.678 0.094)" fill="#6c63ff" opacity="0.1"/>
    <path id="Path_149" data-name="Path 149" d="M198.019,85.812h9.155a36.886,36.886,0,0,1-3.037,14.507,35,35,0,0,1-6.808,9.984V94.573h.691Z" transform="translate(-15.17 0.134)" fill="#6c63ff" opacity="0.1"/>
    <path id="Path_150" data-name="Path 150" d="M207.237,85.08h-9.161V64.415h4.958A57.463,57.463,0,0,1,207.237,85.08Z" transform="translate(-15.227 0.1)" fill="#6c63ff" opacity="0.1"/>
    <path id="Path_151" data-name="Path 151" d="M134.117,41.638h-5.543v7.81h5.543Z" transform="translate(-9.884 0.065)" fill="#6c63ff" opacity="0.1"/>
    <path id="Path_152" data-name="Path 152" d="M134.117,57.8h-5.543v1.8h5.543Z" transform="translate(-9.884 0.09)" fill="#6c63ff" opacity="0.1"/>
    <path id="Path_153" data-name="Path 153" d="M134.117,60.358h-5.543V65.6h5.543Z" transform="translate(-9.884 0.094)" fill="#6c63ff" opacity="0.1"/>
    <path id="Path_154" data-name="Path 154" d="M134.117,73.963h-5.543v7.81h5.543Z" transform="translate(-9.884 0.115)" fill="#6c63ff" opacity="0.1"/>
    <path id="Path_155" data-name="Path 155" d="M134.117,90.126h-5.543v7.81h5.543Z" transform="translate(-9.884 0.14)" fill="#6c63ff" opacity="0.1"/>
    <path id="Path_156" data-name="Path 156" d="M134.117,112.282a.766.766,0,0,1,.164.012.829.829,0,0,1-.164-.011V114.1h-5.543v-7.81h5.543Z" transform="translate(-9.884 0.166)" fill="#6c63ff" opacity="0.1"/>
    <path id="Path_157" data-name="Path 157" d="M134.117,122.449v6.031q-2.783-.248-5.543-.7v-5.336Z" transform="translate(-9.884 0.191)" fill="#6c63ff" opacity="0.1"/>
    <path id="Path_158" data-name="Path 158" d="M102.7,84.475H78.943v.574H102.7Z" transform="translate(-6.069 0.132)" fill="#6c63ff" opacity="0.1"/>
    <path id="Path_159" data-name="Path 159" d="M102.7,85.81H78.943v2.2H102.7Z" transform="translate(-6.069 0.134)" fill="#6c63ff" opacity="0.1"/>
    <path id="Path_160" data-name="Path 160" d="M102.7,95.2H78.943v3.536H102.7Z" transform="translate(-6.069 0.148)" fill="#6c63ff" opacity="0.1"/>
    <path id="Path_161" data-name="Path 161" d="M102.8,105.928v3.536H84.214q-1.214-1-2.391-2.062c-.546-.489-1.085-.989-1.633-1.473Z" transform="translate(-6.165 0.165)" fill="#6c63ff" opacity="0.1"/>
    <path id="Path_162" data-name="Path 162" d="M103.976,116.652V120.2h-1.963q-3.309-1.624-6.485-3.537Z" transform="translate(-7.344 0.182)" fill="#6c63ff" opacity="0.1"/>
    <path id="Path_163" data-name="Path 163" d="M154.031,62.751h-4.677v5.084h4.677Z" transform="translate(-11.482 0.098)" fill="#6c63ff" opacity="0.1"/>
    <path id="Path_164" data-name="Path 164" d="M44.335,39.1H39.658v5.084h4.677Z" transform="translate(-3.049 0.061)" fill="#6c63ff" opacity="0.1"/>
    <path id="Path_165" data-name="Path 165" d="M44.335,50.892H39.658v5.084h4.677Z" transform="translate(-3.049 0.079)" fill="#6c63ff" opacity="0.1"/>
    <path id="Path_166" data-name="Path 166" d="M44.335,62.682H39.658v5.084h4.677Z" transform="translate(-3.049 0.098)" fill="#6c63ff" opacity="0.1"/>
    <path id="Path_167" data-name="Path 167" d="M44.335,74.47H39.658v5.084h4.677Z" transform="translate(-3.049 0.116)" fill="#6c63ff" opacity="0.1"/>
    <path id="Path_168" data-name="Path 168" d="M44.335,86.26H39.658v5.084h4.677Z" transform="translate(-3.049 0.134)" fill="#6c63ff" opacity="0.1"/>
    <path id="Path_169" data-name="Path 169" d="M44.335,98.05H39.658v5.084h4.677Z" transform="translate(-3.049 0.153)" fill="#6c63ff" opacity="0.1"/>
    <path id="Path_170" data-name="Path 170" d="M173.372,62.751H168.7v5.084h4.677Z" transform="translate(-12.968 0.098)" fill="#6c63ff" opacity="0.1"/>
    <path id="Path_171" data-name="Path 171" d="M154.031,75.271h-4.677v5.084h4.677Z" transform="translate(-11.482 0.117)" fill="#6c63ff" opacity="0.1"/>
    <path id="Path_172" data-name="Path 172" d="M173.372,75.271H168.7v5.084h4.677Z" transform="translate(-12.968 0.117)" fill="#6c63ff" opacity="0.1"/>
    <path id="Path_173" data-name="Path 173" d="M154.031,87.79h-4.677v5.084h4.677Z" transform="translate(-11.482 0.137)" fill="#6c63ff" opacity="0.1"/>
    <path id="Path_174" data-name="Path 174" d="M173.372,87.79H168.7v5.084h4.677Z" transform="translate(-12.968 0.137)" fill="#6c63ff" opacity="0.1"/>
    <path id="Path_175" data-name="Path 175" d="M154.031,100.31h-4.677v5.083h4.677Z" transform="translate(-11.482 0.156)" fill="#6c63ff" opacity="0.1"/>
    <path id="Path_176" data-name="Path 176" d="M173.372,100.31H168.7v5.083h4.677Z" transform="translate(-12.968 0.156)" fill="#6c63ff" opacity="0.1"/>
    <path id="Path_177" data-name="Path 177" d="M154.031,112.83h-4.677v5.083h4.677Z" transform="translate(-11.482 0.176)" fill="#6c63ff" opacity="0.1"/>
    <path id="Path_178" data-name="Path 178" d="M173.372,112.83H168.7v5.083h4.677Z" transform="translate(-12.968 0.176)" fill="#6c63ff" opacity="0.1"/>
    <path id="Path_179" data-name="Path 179" d="M149.354,128.626v-3.278h4.676v2.811Z" transform="translate(-11.482 0.195)" fill="#6c63ff" opacity="0.1"/>
    <path id="Path_180" data-name="Path 180" d="M14.355,53.248v2.908h16V53.248Zm1.593,2.726H14.633V53.432h1.316Zm1.593,0H16.226V53.432h1.316Zm1.59,0H17.816V53.432h1.316Zm1.593,0H19.41V53.432h1.316Zm1.592,0H21V53.432h1.316Zm1.593,0H22.6V53.432h1.316Zm1.593,0H24.189V53.432H25.5Zm1.592,0H25.78V53.432H27.1Zm1.592,0H27.372V53.432h1.316Zm1.593,0H28.966V53.432h1.316Z" transform="translate(-1.104 0.083)" fill="#6c63ff" opacity="0.1"/>
    <path id="Path_181" data-name="Path 181" d="M14.355,61.7v2.908h16V61.7Zm1.593,2.726H14.633V61.884h1.316Zm1.593,0H16.226V61.884h1.316Zm1.59,0H17.816V61.884h1.316Zm1.593,0H19.41V61.884h1.316Zm1.592,0H21V61.884h1.316Zm1.593,0H22.6V61.884h1.316Zm1.593,0H24.189V61.884H25.5Zm1.592,0H25.78V61.884H27.1Zm1.592,0H27.372V61.884h1.316Zm1.593,0H28.966V61.884h1.316Z" transform="translate(-1.104 0.096)" fill="#6c63ff" opacity="0.1"/>
    <path id="Path_182" data-name="Path 182" d="M14.355,70.155v2.906h16V70.155Zm1.593,2.722H14.633V70.335h1.316Zm1.593,0H16.226V70.335h1.316Zm1.59,0H17.816V70.335h1.316Zm1.593,0H19.41V70.335h1.316Zm1.592,0H21V70.335h1.316Zm1.593,0H22.6V70.335h1.316Zm1.593,0H24.189V70.335H25.5Zm1.592,0H25.78V70.335H27.1Zm1.592,0H27.372V70.335h1.316Zm1.593,0H28.966V70.335h1.316Z" transform="translate(-1.104 0.109)" fill="#6c63ff" opacity="0.1"/>
    <path id="Path_183" data-name="Path 183" d="M14.355,78.607v2.907h16V78.607Zm1.593,2.724H14.633V78.786h1.316Zm1.593,0H16.226V78.786h1.316Zm1.59,0H17.816V78.786h1.316Zm1.593,0H19.41V78.786h1.316Zm1.592,0H21V78.786h1.316Zm1.593,0H22.6V78.786h1.316Zm1.593,0H24.189V78.786H25.5Zm1.592,0H25.78V78.786H27.1Zm1.592,0H27.372V78.786h1.316Zm1.593,0H28.966V78.786h1.316Z" transform="translate(-1.104 0.123)" fill="#6c63ff" opacity="0.1"/>
    <path id="Path_184" data-name="Path 184" d="M14.438,87.056c.062.275.136.547.212.817V87.24h1.316v2.54h-.705c.02.061.041.123.064.179H30.372v-2.9Zm3.125,2.724H16.247V87.24h1.316Zm1.59,0H17.838V87.24h1.316Zm1.593,0H19.431V87.24h1.316Zm1.592,0H21.023V87.24h1.316Zm1.593,0H22.616V87.24h1.316Zm1.593,0H24.21V87.24h1.316Zm1.592,0H25.8V87.24h1.316Zm1.592,0H27.394V87.24h1.316Zm1.593,0H28.987V87.24H30.3Z" transform="translate(-1.11 0.136)" fill="#6c63ff" opacity="0.1"/>
    <path id="Path_185" data-name="Path 185" d="M18.454,95.509c.043.057.082.121.123.179h.87v1.221l.281.358V95.68h1.316v2.563H20.5c.053.059.1.122.165.179h10V95.509Zm4.187,2.735H21.325V95.691h1.316Zm1.593,0H22.918V95.691h1.316Zm1.593,0H24.512V95.691h1.316Zm1.592,0H26.1V95.691h1.316Zm1.592,0H27.7V95.691h1.316Zm1.593,0H29.289V95.691H30.6Z" transform="translate(-1.419 0.149)" fill="#6c63ff" opacity="0.1"/>
    <path id="Path_186" data-name="Path 186" d="M27.965,103.961c.151.093.3.179.457.27v-.09h1.316v.806c.1.045.186.093.28.14v-.946h1.316v1.548a.538.538,0,0,0,.077.03v-1.759Z" transform="translate(-2.15 0.162)" fill="#6c63ff" opacity="0.1"/>
    <path id="Path_187" data-name="Path 187" d="M127.149,112.4h0ZM116.58,85.553c.031.114.059.229.087.341C116.643,85.782,116.613,85.668,116.58,85.553ZM37.953,32.871v.761H45.3v-.765Zm89.2,79.525h0ZM116.58,85.553c.031.114.059.229.087.341C116.643,85.782,116.613,85.668,116.58,85.553ZM127.149,112.4h0ZM116.58,85.553c.031.114.059.229.087.341C116.643,85.782,116.613,85.668,116.58,85.553Z" transform="translate(-2.918 0.051)" fill="#6c63ff" opacity="0.1"/>
    <path id="Path_188" data-name="Path 188" d="M155.329,154.009c8.85,0,16.024-1.252,16.024-2.8s-7.174-2.8-16.024-2.8-16.024,1.252-16.024,2.8S146.479,154.009,155.329,154.009Z" transform="translate(-10.709 0.231)" fill="#6c63ff" opacity="0.1"/>
    <path id="Path_189" data-name="Path 189" d="M77.043,151.216c8.85,0,16.024-1.253,16.024-2.8s-7.174-2.8-16.024-2.8-16.024,1.252-16.024,2.8S68.193,151.216,77.043,151.216Z" transform="translate(-4.691 0.227)" fill="#6c63ff" opacity="0.1"/>
    <path id="Path_190" data-name="Path 190" d="M95.981,74.6a.1.1,0,0,0-.025-.046c-.245-.263-3.369-5.066-3.369-5.066s-.164-.536-.431-1.233a1.266,1.266,0,0,0,.189-.4,1.5,1.5,0,0,0,.031-.188.242.242,0,0,1,.018-.055,1.47,1.47,0,0,0-.016-.737,1.337,1.337,0,0,1-.067.179,3.12,3.12,0,0,0-.247-.6c-.414-.776-1.006-1.43-1.442-2.186a6.342,6.342,0,0,1-.742-3.925v.211a6.618,6.618,0,0,1,.1-.8,5.931,5.931,0,0,1,.275-.883c.391-.974,1.025-1.823,1.409-2.8a5.652,5.652,0,0,0,.293-1.024,6.221,6.221,0,0,0,.146-1.8,3.1,3.1,0,0,1-.041.427A6.079,6.079,0,0,0,90.55,49.8a8.546,8.546,0,0,0-5.118-2.338,4.471,4.471,0,0,1-2.154-.894,3.5,3.5,0,0,0-2.454-.509,3.936,3.936,0,0,0-2.5,1.342c-.877,1.047-1.256,2.531-2.279,3.414a9.821,9.821,0,0,1-2.128,1.151,2.966,2.966,0,0,0-1.636,1.677v.029l-.01.029a5.7,5.7,0,0,0,.465,2.792,12.259,12.259,0,0,1,.281,2.955c.018,1.208.035,2.419.016,3.629-.008.475-.023.956-.056,1.43a6.587,6.587,0,0,0-1.13.493A23.439,23.439,0,0,0,70.1,66.878l-2.7,11.194.036.045-.036.152.137-.034A14.257,14.257,0,0,0,70.3,80.748l.115,2.2a3.954,3.954,0,0,0,2,3.112c.043.763.176,3.863-.441,5.091a6.139,6.139,0,0,0-.582,2.91,10.749,10.749,0,0,1-.03,2.842,5.041,5.041,0,0,0-.031,1.995v.588c0,1.982.021,8.335,0,9.053-.031.849,0,13.407,0,13.407s-.153,6.276-.643,7.975-.367,7.329-.367,7.329-.307,6.7.779,8.027c0,.059-.01.12-.012.179v.084c-.013.509.077,1.051.48,1.217a6.966,6.966,0,0,1,2.115,1.668,3.631,3.631,0,0,0,2.96.833,20.635,20.635,0,0,1,2.942-.147s.615-.121.416-.952a7.655,7.655,0,0,0-.95-1.839c.062.017.123.032.181.044l.059.013h.046c.025,0,.05,0,.076,0h.033a.709.709,0,0,0,.092,0,4.021,4.021,0,0,1,2.227,1.251,2.922,2.922,0,0,0,1.973,1,12.885,12.885,0,0,0,2.449-.168,8.351,8.351,0,0,0,1.371-.271c.217-.089.263-.376.2-.7a1.85,1.85,0,0,0-.569-1.044,4.976,4.976,0,0,1-.878-1.191l-.069-.12c.459-.475,1.288-2.03,1.539-2.352.306-.392-.493-14.708-.493-14.708V120.9l1.225-6.793.857-3.595.735-5.426s1.286-6.339.89-6.961c0-.013-.329-6.539-.674-8.106a19.312,19.312,0,0,1-.023-3.8.77.77,0,0,0,.187-.366.813.813,0,0,0-.022-.417,1.72,1.72,0,0,0-.1-.266v-.082a10.712,10.712,0,0,1,2.215-.819c1.225-.261.919-.947.919-.947s.276-.588.459-.947a22.453,22.453,0,0,0,0-3.791c-.012-.105-.087-.688-.174-1.35.393-.3.9-.681,1.462-1.039C96.307,75.51,96.069,74.79,95.981,74.6ZM80,119.921s-.919,2.549-.551,3.2-.061,3.074-.061,3.074l-.308,3.595s-.857,6.668-.551,8.236a60.531,60.531,0,0,1,.357,6.435.463.463,0,0,0-.061.032l-.041.023c.141-.6.082-1.821-.62-4.274l-.059-10.13s-.109-11.7.742-13.01A10.441,10.441,0,0,0,80,113.574s-.184,3.2-.3,4.053A7.214,7.214,0,0,0,80,119.921ZM78.285,145.1c-.008.021-.018.043-.025.062l-.046-.064A.417.417,0,0,0,78.285,145.1Z" transform="translate(-5.182 0.072)" fill="#fff"/>
    <path id="Path_191" data-name="Path 191" d="M88.576,148.961a15.065,15.065,0,0,1-3.772.441,2.84,2.84,0,0,1-1.945-1.01,3.9,3.9,0,0,0-2.2-1.251,1.381,1.381,0,0,1-.493-.075,5.808,5.808,0,0,1-.822-.344,1.8,1.8,0,0,1,.018-.679,1.118,1.118,0,0,1,.036-.132,1.154,1.154,0,0,1,.552-.669l.059-.03a1.607,1.607,0,0,1,.355-.118c1.293-.269,6.626.271,6.626.271s.15.291.355.653a4.965,4.965,0,0,0,.868,1.2,1.869,1.869,0,0,1,.561,1.051C88.836,148.584,88.79,148.873,88.576,148.961Z" transform="translate(-6.098 0.226)" fill="#fff"/>
    <path id="Path_192" data-name="Path 192" d="M88.576,148.96a15.051,15.051,0,0,1-3.771.441,2.856,2.856,0,0,1-1.947-1.01,3.91,3.91,0,0,0-2.2-1.251,3.589,3.589,0,0,1-1.316-.419,1.586,1.586,0,0,1,.27-1.2l.822.635s2.2.741,2.608,1.429a2.584,2.584,0,0,0,2.225,1.143,19.206,19.206,0,0,0,3.509-.453C88.836,148.583,88.792,148.872,88.576,148.96Z" transform="translate(-6.098 0.227)" opacity="0.1"/>
    <path id="Path_193" data-name="Path 193" d="M80.12,149.872a20.109,20.109,0,0,0-2.9.148,3.545,3.545,0,0,1-2.929-.838A6.943,6.943,0,0,0,72.2,147.5c-.4-.168-.493-.715-.475-1.226v-.084a5.408,5.408,0,0,1,.132-.96l6.4-.149.554.817.086.125.337.5s.153.218.354.536a7.862,7.862,0,0,1,.939,1.852C80.727,149.75,80.12,149.872,80.12,149.872Z" transform="translate(-5.514 0.226)" fill="#fff"/>
    <path id="Path_194" data-name="Path 194" d="M80.12,149.871a20.109,20.109,0,0,0-2.9.148,3.541,3.541,0,0,1-2.927-.838A6.74,6.74,0,0,0,72.2,147.5c-.4-.168-.493-.715-.475-1.227a3.535,3.535,0,0,1,1.794.93,3.906,3.906,0,0,0,2.631,1.923c1.013.059,3.48-.138,4.384-.216C80.728,149.748,80.12,149.871,80.12,149.871Z" transform="translate(-5.514 0.228)" opacity="0.1"/>
    <path id="Path_195" data-name="Path 195" d="M79.358,145.235c-.074.6-.3.758-.467.794a.311.311,0,0,1-.122,0,.46.46,0,0,1-.064-.011s-5.746,1.38-6.907.262a.883.883,0,0,1-.082-.093,5.408,5.408,0,0,1,.132-.959l6.4-.148.554.816a1.155,1.155,0,0,1,.553-.668Z" transform="translate(-5.513 0.226)" opacity="0.1"/>
    <path id="Path_196" data-name="Path 196" d="M87.4,146.012c-.128.153-.235.241-.3.21-.3-.132-2.782-.591-3.57-.2s-3.453.064-3.453.064,0-.343-.015-.893a1.558,1.558,0,0,1,.355-.118c1.293-.269,6.626.271,6.626.271S87.2,145.65,87.4,146.012Z" transform="translate(-6.155 0.226)" opacity="0.1"/>
    <path id="Path_197" data-name="Path 197" d="M90.445,105.653l-.727,5.458-.845,3.619-1.21,6.839v7.239s.786,14.4.483,14.8-1.452,2.633-1.755,2.5-2.782-.592-3.57-.2-3.453.066-3.453.066-.061-5.59-.363-7.168.544-8.287.544-8.287l.3-3.616s.424-2.435.061-3.093.544-3.217.544-3.217a7.275,7.275,0,0,1-.3-2.3c.122-.854.3-4.077.3-4.077a10.672,10.672,0,0,1-1.141,3.552c-.84,1.314-.733,13.088-.733,13.088l.059,10.189c1.515,5.4,0,4.868,0,4.868s-5.746,1.382-6.907.262-.829-8.162-.829-8.162-.12-5.656.363-7.364.636-8.024.636-8.024-.031-12.629,0-13.481c.023-.715,0-7.116,0-9.116v-.592l.694-1.873,8.222-1.119h3.934s5.92,1.512,6.532,2.165a.147.147,0,0,1,.033.039C91.716,99.275,90.445,105.653,90.445,105.653Z" transform="translate(-5.447 0.15)" fill="#6c63ff"/>
    <path id="Path_198" data-name="Path 198" d="M81.261,134.27s1.809,4.734,2.662,5.064S81.261,134.27,81.261,134.27Z" transform="translate(-6.247 0.209)" opacity="0.1"/>
    <path id="Path_199" data-name="Path 199" d="M81.986,141.23s6.108.33,6.047,1.053S81.986,141.23,81.986,141.23Z" transform="translate(-6.303 0.22)" opacity="0.1"/>
    <path id="Path_200" data-name="Path 200" d="M73.134,139.34c.242.248,4.659.715,4.3,1.169s-3.932,1.337-3.932,1.337Z" transform="translate(-5.622 0.217)" opacity="0.1"/>
    <path id="Path_201" data-name="Path 201" d="M72.349,131.184A65.086,65.086,0,0,0,73.5,137.76a8.774,8.774,0,0,0,2.238.526Z" transform="translate(-5.562 0.204)" opacity="0.1"/>
    <path id="Path_202" data-name="Path 202" d="M78.956,47.706c-.867,1.053-1.242,2.545-2.251,3.436A9.7,9.7,0,0,1,74.6,52.3a2.925,2.925,0,0,0-1.633,1.746,5.822,5.822,0,0,0,.46,2.808,12.6,12.6,0,0,1,.278,2.973c.016,1.217.035,2.435.015,3.652a11.333,11.333,0,0,1-1.1,5.488,36.232,36.232,0,0,0,10.4,1.462,9.665,9.665,0,0,0,2.021-.055,16.229,16.229,0,0,0,1.722-.474,12.207,12.207,0,0,1,3.43-.477,5.309,5.309,0,0,0,1.506-.109,1.534,1.534,0,0,0,1.087-1.039,2.065,2.065,0,0,0-.278-1.409c-.408-.779-.987-1.43-1.424-2.2A6.42,6.42,0,0,1,90.317,62a6.514,6.514,0,0,1,.417-2.762c.388-.981,1.013-1.836,1.394-2.819a6.428,6.428,0,0,0,.3-3.329,6.143,6.143,0,0,0-1.4-2.978,8.381,8.381,0,0,0-5.053-2.352,4.38,4.38,0,0,1-2.128-.894,3.4,3.4,0,0,0-2.424-.511A3.855,3.855,0,0,0,78.956,47.706Z" transform="translate(-5.583 0.072)" fill="#3f3d56"/>
    <g id="Group_7" data-name="Group 7" transform="translate(67.104 53.652)" opacity="0.1">
      <path id="Path_203" data-name="Path 203" d="M92.261,58.191a6.412,6.412,0,0,0-.419,2.73,6.271,6.271,0,0,1,.419-1.938c.386-.981,1.011-1.836,1.393-2.819a6.153,6.153,0,0,0,.383-2.6,5.967,5.967,0,0,1-.383,1.805C93.272,56.358,92.647,57.21,92.261,58.191Z" transform="translate(-74.164 -53.569)" opacity="0.1"/>
      <path id="Path_204" data-name="Path 204" d="M73.784,59.571c.01.7.02,1.4.021,2.1q0-1.448-.021-2.892a12.574,12.574,0,0,0-.278-2.974,15.723,15.723,0,0,1-.493-1.848,6.661,6.661,0,0,0,.493,2.638A12.516,12.516,0,0,1,73.784,59.571Z" transform="translate(-72.715 -53.568)" opacity="0.1"/>
      <path id="Path_205" data-name="Path 205" d="M91.767,68.257a5.124,5.124,0,0,1-1.5.109,12.2,12.2,0,0,0-3.429.468,16.323,16.323,0,0,1-1.722.472,9.567,9.567,0,0,1-2.023.057,37.6,37.6,0,0,1-10.067-1.353,6.3,6.3,0,0,1-.329.679,36.3,36.3,0,0,0,10.4,1.462,9.568,9.568,0,0,0,2.023-.057,15.923,15.923,0,0,0,1.715-.47,12.2,12.2,0,0,1,3.422-.474,5.237,5.237,0,0,0,1.5-.111,1.406,1.406,0,0,0,1.071-1.78A1.581,1.581,0,0,1,91.767,68.257Z" transform="translate(-72.692 -53.548)" opacity="0.1"/>
    </g>
    <path id="Path_206" data-name="Path 206" d="M87.141,66.157c-.122.3-.635,2.86-.756,3.123s-.786,4.469-.847,4.7S81.159,73,81.159,73l-2.6-2.368-2.672-2.89s-.079-2.608,1.889-3.445a2.839,2.839,0,0,1,.411-.139c2.388-.624,2.148-8.516,2.148-8.516l4.9,2.3s-.908,4.6-.877,5.493a.682.682,0,0,0,.5.6,3.689,3.689,0,0,0,1.339.157S87.263,65.862,87.141,66.157Z" transform="translate(-5.834 0.087)" fill="#fbbebe"/>
    <path id="Path_207" data-name="Path 207" d="M97.043,74.776l.7.2s.515.851-.7,1.643A21.055,21.055,0,0,0,94.835,78.3l-3.577,1.183-.689-2.351L93.9,74.383Z" transform="translate(-6.962 0.116)" fill="#6c63ff"/>
    <path id="Path_208" data-name="Path 208" d="M97.043,74.776l.7.2s.515.851-.7,1.643A21.055,21.055,0,0,0,94.835,78.3l-3.577,1.183-.689-2.351L93.9,74.383Z" transform="translate(-6.962 0.116)" opacity="0.1"/>
    <path id="Path_209" data-name="Path 209" d="M69.19,77.043,67.8,78.523s2.509,3.157,4.44,3.353,3.175-2.4,3.175-2.4l-1.671-2.86Z" transform="translate(-5.212 0.119)" fill="#6c63ff"/>
    <path id="Path_210" data-name="Path 210" d="M69.19,77.043,67.8,78.523s2.509,3.157,4.44,3.353,3.175-2.4,3.175-2.4l-1.671-2.86Z" transform="translate(-5.212 0.119)" opacity="0.1"/>
    <path id="Path_211" data-name="Path 211" d="M83.218,60.8a5.279,5.279,0,1,0-4.84-5.261A5.063,5.063,0,0,0,83.218,60.8Z" transform="translate(-6.025 0.078)" opacity="0.1"/>
    <path id="Path_212" data-name="Path 212" d="M83.218,60.41a5.279,5.279,0,1,0-4.84-5.261A5.063,5.063,0,0,0,83.218,60.41Z" transform="translate(-6.025 0.078)" fill="#fbbebe"/>
    <path id="Path_213" data-name="Path 213" d="M91.41,99.241a14.573,14.573,0,0,0-3.238.788c-1.809.654-15.984.011-16.182,0v-.592l.694-1.873,8.222-1.119H84.84s5.92,1.512,6.532,2.165C91.4,99,91.41,99.241,91.41,99.241Z" transform="translate(-5.534 0.15)" opacity="0.1"/>
    <path id="Path_214" data-name="Path 214" d="M87.141,66.144c-.122.3-.635,2.86-.756,3.123s-.786,4.469-.847,4.7-4.379-.987-4.379-.987l-2.6-2.368-2.672-2.89s-.079-2.608,1.889-3.445l4.887,6.108,2.2-6.373a3.687,3.687,0,0,0,1.339.157S87.263,65.849,87.141,66.144Z" transform="translate(-5.834 0.1)" opacity="0.1"/>
    <path id="Path_215" data-name="Path 215" d="M82.263,70.586l-5-6.256a1.985,1.985,0,0,0-.974-.352,1.949,1.949,0,0,0-1.011.193c-1.12.527-2.511.955-2.875,1.217a23.547,23.547,0,0,0-1.725,1.889l4.055,11.531-1.786,7.6s.273,3.881-.423,5.295a6.237,6.237,0,0,0-.576,2.926,11.037,11.037,0,0,1-.03,2.86,5.167,5.167,0,0,0-.031,2.006s14.371.658,16.185,0a14.439,14.439,0,0,1,3.238-.788s-.329-6.578-.658-8.156.273-7.6.273-7.6L90.531,76.5l2.358-6.614s-1.278-4.24-2.61-4.667a24.276,24.276,0,0,1-2.934-.921,9.614,9.614,0,0,0-2.028-.559l-.794.29Z" transform="translate(-5.433 0.099)" fill="#6c63ff"/>
    <path id="Path_216" data-name="Path 216" d="M89.775,76.269l-10.527-.778a.5.5,0,0,0-.515.489L77.6,94.045a.513.513,0,0,0,.45.56l10.527.778a.5.5,0,0,0,.515-.489l1.13-18.066A.513.513,0,0,0,89.775,76.269Z" transform="translate(-5.966 0.118)" opacity="0.1"/>
    <path id="Path_217" data-name="Path 217" d="M90.167,75.877,79.641,75.1a.5.5,0,0,0-.515.489L78,93.654a.513.513,0,0,0,.45.56l10.527.778a.5.5,0,0,0,.515-.489l1.13-18.066A.513.513,0,0,0,90.167,75.877Z" transform="translate(-5.996 0.117)" fill="#3f3d56"/>
    <path id="Path_218" data-name="Path 218" d="M89.886,77.291l-10.011-.74L78.845,93l10.011.74Z" transform="translate(-6.061 0.119)" fill="#fff"/>
    <path id="Path_219" data-name="Path 219" d="M89.138,81.482,80.96,80.86l-.16,2.477,8.178.622Z" transform="translate(-6.212 0.126)" opacity="0.1"/>
    <path id="Path_220" data-name="Path 220" d="M89.4,91.312l-1.3-.1-.081,1.291,1.3.1Z" transform="translate(-6.766 0.142)" opacity="0.1"/>
    <path id="Path_221" data-name="Path 221" d="M87.565,88.2l-6.643-.491L80.841,89l6.643.491Z" transform="translate(-6.215 0.137)" opacity="0.1"/>
    <path id="Path_222" data-name="Path 222" d="M88.876,76.677l-6.917-.511-.124,1.985,6.917.511Z" transform="translate(-6.291 0.119)" fill="#3f3d56"/>
    <path id="Path_223" data-name="Path 223" d="M88.876,76.677l-6.917-.511-.124,1.985,6.917.511Z" transform="translate(-6.291 0.119)" opacity="0.1"/>
    <path id="Path_224" data-name="Path 224" d="M83.682,98.875s-.061,9.735-2.421,15.324c0,0,2.845-7.366,2.845-7.661s1.572-3.387,1.151-4.308S83.682,98.875,83.682,98.875Z" transform="translate(-6.247 0.154)" opacity="0.1"/>
    <path id="Path_225" data-name="Path 225" d="M83.538,53.836a3.909,3.909,0,0,1,.548-2.451,3.211,3.211,0,0,0,.529,2.025,2.773,2.773,0,0,0,1.618,1.157.4.4,0,0,1-.113-.2.427.427,0,0,1,.01-.234,13.055,13.055,0,0,0,.977,1.271,1.224,1.224,0,0,0,1.4.324c.61-.358.617-1.3.459-2.032a9.851,9.851,0,0,0-2.021-4.2,2.746,2.746,0,0,0-.934-.857,2.5,2.5,0,0,0-1.187-.316,4.847,4.847,0,0,0-2.741.467,7.312,7.312,0,0,0-1.316,1l-2.3,2.041a2.3,2.3,0,0,0-.559.64,1.87,1.87,0,0,0-.174.67,3.886,3.886,0,0,0,.329,1.944,3.523,3.523,0,0,0,1.22,1.465,2.84,2.84,0,0,1,.384-1.494,2.52,2.52,0,0,1,1.084-1.008.688.688,0,0,1,.166.231.744.744,0,0,1,.063.285l.485-.94a1.019,1.019,0,0,1,.329-.424c.3-.179.673.032.927.284s.5.567.845.606l.013-1.4" transform="translate(-5.975 0.075)" opacity="0.1"/>
    <path id="Path_226" data-name="Path 226" d="M83.538,53.64a3.912,3.912,0,0,1,.548-2.453,3,3,0,0,0,2.149,3.182.4.4,0,0,1-.114-.2.424.424,0,0,1,.01-.233,13.277,13.277,0,0,0,.977,1.271,1.218,1.218,0,0,0,1.4.322c.61-.358.617-1.3.459-2.031a9.85,9.85,0,0,0-2.021-4.2,3.288,3.288,0,0,0-1.13-.955,3.062,3.062,0,0,0-.987-.218,4.846,4.846,0,0,0-2.741.465,7.4,7.4,0,0,0-1.316,1l-2.3,2.041a2.281,2.281,0,0,0-.559.64,1.861,1.861,0,0,0-.174.67,3.884,3.884,0,0,0,.329,1.943,3.522,3.522,0,0,0,1.22,1.464,2.844,2.844,0,0,1,.385-1.494,2.524,2.524,0,0,1,1.084-1.009.693.693,0,0,1,.165.232.748.748,0,0,1,.063.285l.484-.937a1.006,1.006,0,0,1,.329-.424c.3-.179.673.032.927.284s.5.565.845.606l.013-1.4" transform="translate(-5.975 0.075)" fill="#3f3d56"/>
    <path id="Path_227" data-name="Path 227" d="M85.289,86.777c-.423-.232-7.412.953-7.412.953a37.207,37.207,0,0,0-3.934-.854,3.778,3.778,0,0,1-2.96-3.454l-.3-5.918.939-.894,4.022,2.86a15.351,15.351,0,0,1,0,1.707,2.577,2.577,0,0,0-.135.536.187.187,0,0,0,.042.105.162.162,0,0,0,.092.056c.273.075,3.993.729,3.993.729s8.622-.642,10.771,2.515a2.449,2.449,0,0,1,.38.779C91.318,88.056,85.672,86.983,85.289,86.777Z" transform="translate(-5.433 0.119)" fill="#fbbebe"/>
    <path id="Path_228" data-name="Path 228" d="M91.181,85.9c-.329.159-.533.274-.533.274a18.543,18.543,0,0,1-4.818-.781,10.464,10.464,0,0,0-3.84-.561s-7.223-1.351-6.1-3.116a.187.187,0,0,0,.042.105.161.161,0,0,0,.092.055c.273.075,3.993.729,3.993.729s8.622-.642,10.771,2.515A2.44,2.44,0,0,1,91.181,85.9Z" transform="translate(-5.825 0.127)" opacity="0.1"/>
    <path id="Path_229" data-name="Path 229" d="M94.181,75.5s.424,3.255.454,3.52a22.9,22.9,0,0,1,0,3.815c-.183.363-.454.953-.454.953s.3.69-.908.955a11.83,11.83,0,0,0-2.631,1.051A18.244,18.244,0,0,1,85.832,85a10.262,10.262,0,0,0-3.841-.559s-9.168-1.711-5.234-3.8a5.7,5.7,0,0,1,6.716.74l4.386-.295S89.493,80,89.946,80.1a1.561,1.561,0,0,0,.937-.164l.031-3.453Z" transform="translate(-5.825 0.118)" fill="#fbbebe"/>
    <path id="Path_230" data-name="Path 230" d="M71.327,67.52l-.878-.05L67.788,78.732s2.873-.79,4.111,0a9.319,9.319,0,0,0,3.509.953l-.847-8.977Z" transform="translate(-5.211 0.105)" opacity="0.1"/>
    <path id="Path_231" data-name="Path 231" d="M71.327,67.322l-.878-.05L67.788,78.534s2.873-.79,4.111,0a9.318,9.318,0,0,0,3.509.953l-.847-8.977Z" transform="translate(-5.211 0.105)" fill="#6c63ff"/>
    <path id="Path_232" data-name="Path 232" d="M93.26,69.785l1.209.3s3.087,4.826,3.328,5.1-1.151,1.251-1.725,1.251-3.388.358-4.2,1.183-.477-3.33-.477-3.425S92.4,71.471,92.4,71.471Z" transform="translate(-7.02 0.109)" opacity="0.1"/>
    <path id="Path_233" data-name="Path 233" d="M93.26,69.589l1.209.295s3.087,4.835,3.328,5.1-1.151,1.251-1.725,1.251-3.388.358-4.2,1.183-.477-3.33-.477-3.425,1.021-2.726,1.021-2.726Z" transform="translate(-7.02 0.108)" fill="#6c63ff"/>
    <g id="Group_8" data-name="Group 8" transform="translate(71.749 50.868)" opacity="0.1">
      <path id="Path_234" data-name="Path 234" d="M84.078,51.2a2.867,2.867,0,0,1,.008-.411,3.844,3.844,0,0,0-.507,1.349v.5c0,.29,0,.581-.008.87h-.023v.134a.775.775,0,0,0-.008-.138c-.329-.057-.564-.358-.809-.6s-.628-.468-.927-.284a1.008,1.008,0,0,0-.329.424l-.488.937a.74.74,0,0,0-.063-.284.685.685,0,0,0-.166-.231,2.521,2.521,0,0,0-1.084,1.008,2.84,2.84,0,0,0-.384,1.494,3.511,3.511,0,0,1-1.1-1.219,3.86,3.86,0,0,1-.464-1.629,3.878,3.878,0,0,0,.375,1.851,3.517,3.517,0,0,0,1.185,1.39,2.845,2.845,0,0,1,.385-1.494,2.525,2.525,0,0,1,1.084-1.009.7.7,0,0,1,.165.232.75.75,0,0,1,.063.285l.484-.937a1.008,1.008,0,0,1,.329-.424c.3-.179.673.032.927.284s.5.565.845.606q0-.686.013-1.369A3.83,3.83,0,0,1,84.078,51.2Z" transform="translate(-77.724 -50.789)" opacity="0.1"/>
      <path id="Path_235" data-name="Path 235" d="M84,53c.008-.121.022-.243.038-.357l.018-.493A3.907,3.907,0,0,0,84,53Z" transform="translate(-78.207 -50.786)" opacity="0.1"/>
      <path id="Path_236" data-name="Path 236" d="M89.209,55.128a1.221,1.221,0,0,1-1.4-.322,13.055,13.055,0,0,1-.977-1.271.428.428,0,0,0-.01.234.4.4,0,0,0,.114.2.364.364,0,0,1-.1-.027,11.63,11.63,0,0,0,.969,1.251,1.231,1.231,0,0,0,1.4.322,1.521,1.521,0,0,0,.538-1.468A1.27,1.27,0,0,1,89.209,55.128Z" transform="translate(-78.423 -50.784)" opacity="0.1"/>
      <path id="Path_237" data-name="Path 237" d="M86.659,53.941a2.783,2.783,0,0,1-1.407-.979,3.183,3.183,0,0,1-.642-1.677,2.989,2.989,0,0,0,2.154,3.08.4.4,0,0,1-.112-.194A.426.426,0,0,1,86.659,53.941Z" transform="translate(-78.253 -50.788)" opacity="0.1"/>
    </g>
    <path id="Path_238" data-name="Path 238" d="M169.463,83.168s-.648-.1-.648-1.123a17.354,17.354,0,0,0-.464-2.942s-.4-3.337-.955-3.866-1.266-3.636-1.266-3.636a7.9,7.9,0,0,0-.37-2.048,18.08,18.08,0,0,1-1.079-2.519c-.495-1.267-2.553-2.136-2.553-2.136s-3.731-2.352-4.789-3.119a1.668,1.668,0,0,1-.27-.222c-.184-.261-.987-.266-.987-.266-.084-.577-.164-1.239-.19-1.838V59.26a6.11,6.11,0,0,0,2.5-3.364c.019-.068.036-.138.054-.207a.532.532,0,0,0,.2-.119.586.586,0,0,0,.133-.2,6.861,6.861,0,0,1,.215-.715,2.514,2.514,0,0,1,.609-.579,2.644,2.644,0,0,0,.632-2.036c-.016-.6-.105-1.2-.07-1.8a.748.748,0,0,1,.01-.15c.009-.088.021-.179.036-.265.08-.443.257-.862.355-1.3a1.81,1.81,0,0,0-.122-1.314,1.987,1.987,0,0,0-1.656-.715c-.7-.064-1.315.018-1.771-.613a6.62,6.62,0,0,0-.7-.922c-.092-.093-.987-.688-.987-.726a3.7,3.7,0,0,0-2.8-.234c-.466.147-.9.386-1.374.506-1.013.261-2.18-.021-3.043.61a3.894,3.894,0,0,0-1.038,1.48q-.328.683-.667,1.367a9.267,9.267,0,0,0-.886,2.34,4.206,4.206,0,0,0-.061.549v.284a1.034,1.034,0,0,0,.01.179,1.073,1.073,0,0,0,.011.111c.012.038.015.122.025.179s.03.159.049.236a.411.411,0,0,0,.03.1c.01.034.037.12.058.179s.023.063.036.093a1.8,1.8,0,0,0,.084.179c.013.023.023.046.036.07a2.09,2.09,0,0,0,.151.239c.35.477.87.781,1.253,1.228v.2a6.536,6.536,0,0,0,.72,2.841,5.94,5.94,0,0,0,1.859,2.146c0,.068.007.138.011.207a11.024,11.024,0,0,1-.018,1.591.7.7,0,0,0-.245-.2.65.65,0,0,0-.3-.065.723.723,0,0,0-.21.02L149,60.659v.016c-.362.1-.808.506-1.233,1.669,0,0-1.3,1.587-2.283,1.521S142,65.519,142,65.519s-2.437,1.718-2.96,3.47a25.679,25.679,0,0,1-1.051,2.91l-3.021,6.742L134.417,84a26.871,26.871,0,0,1,.246,2.744,27.775,27.775,0,0,0,1.265,3.636s4.379,8.362,6.168,8.791l.128-.1a1.058,1.058,0,0,0,.242.1l.368-.281a4.526,4.526,0,0,1-.03.942,27.012,27.012,0,0,0,.524,7.272c.431,1.056.278,14.909.278,14.909l-.061,1.221a.564.564,0,0,0,.015.107l-.015.289.044.025a3.742,3.742,0,0,1-.044,1.166,14.052,14.052,0,0,0-.217,2.05s-1.233,8.558-.648,10.278,1.081,3.6,1.081,3.6.617,2.145.03,2.5-2.25.992-1.911,1.884c.312.826,1.5,3.039,1.674,3.362l-.015.179-.242,2.847a3.846,3.846,0,0,0,.278,1.087,1.722,1.722,0,0,0,1.759,1.194c.164-.012.354-.032.539-.059a21.864,21.864,0,0,0,3.994-1.132,1.581,1.581,0,0,1-.311-.28.983.983,0,0,1-.2-.326,1.05,1.05,0,0,1-.069-.389,22.165,22.165,0,0,0-1.09-3.6l-.051-.136s2.036-2.315,1.7-4.364c0,0-2.253-1.429-1.511-2.216a25.152,25.152,0,0,0,2.067-3.039s.061-8.428,0-9.684a11.335,11.335,0,0,1,.114-2.617c.025-.129.054-.256.086-.383a19.4,19.4,0,0,0,3.1.255q.569,0,1.151-.025c0,.119.006.247.015.387.086,2.087.246,5.75.376,7.11.184,1.949,1.2,7.206,1.2,7.206s-1.942,1.353.339,4.693a4.9,4.9,0,0,1-.151,1.385,16.271,16.271,0,0,0-.39,1.747,3.324,3.324,0,0,0,.019,1.594c.37.79,2.59.726,2.59.726a.25.25,0,0,1,.054-.009,2.923,2.923,0,0,1,1.245.127,3.078,3.078,0,0,1,1.1.641c.844.737,4.044.415,5.779.179.679-.1,1.133-.179,1.133-.179a.753.753,0,0,0,.023-.257c-.018-.463-.352-1.478-2.614-2.385,0,0-2.128-1.554-2.1-2.91h-.293c.154-.006.263-.006.263-.006s-.834-3.305-.494-3.575-.678-3.932-.678-3.932-.584-6.15-.617-6.578a4.062,4.062,0,0,1,.154-1.091l-.154-3.373s-.03-1.121,0-1.485a7.711,7.711,0,0,0-.069-.945c-.015-.125-.03-.255-.046-.385.8-.219,1.315-.422,1.315-.422l-.092-11.735c.678-1.43.8-4.569.8-6.793,0-1.43-.059-2.488-.059-2.488l.926-1.643s.213-1.967-.126-2.4a.438.438,0,0,1,.042-.563,1.713,1.713,0,0,1,.206-.157.216.216,0,0,1-.021-.039,1.657,1.657,0,0,1,.2-.159s-.329-.554-.034-.788c.276.2.522.366.71.483-.013.131-.026.206-.026.206l.078-.179.292.179a25.074,25.074,0,0,0,1.419-3.6A11.009,11.009,0,0,1,168.158,92a2.507,2.507,0,0,1,.679-1.455c.556-.429.43-3.538.43-3.538a8.158,8.158,0,0,1,.525-2.279C170.162,84.065,169.463,83.168,169.463,83.168ZM141.71,81.79l.029.749c-.164-.288-.283-.493-.283-.493Z" transform="translate(-10.333 0.068)" fill="#fff"/>
    <path id="Path_239" data-name="Path 239" d="M168.135,96.578l-.354,1.645s-2.845-1.582-3.356-3.584a2.344,2.344,0,0,1,.857-2.765l2.652,1.219Z" transform="translate(-12.631 0.143)" fill="#fff"/>
    <path id="Path_240" data-name="Path 240" d="M168.135,96.578l-.354,1.645s-2.845-1.582-3.356-3.584a2.344,2.344,0,0,1,.857-2.765l2.652,1.219Z" transform="translate(-12.631 0.143)" opacity="0.1"/>
    <path id="Path_241" data-name="Path 241" d="M150.623,152.463a19.151,19.151,0,0,1-4.44,1.183,1.693,1.693,0,0,1-1.725-1.187,3.88,3.88,0,0,1-.273-1.073l.239-2.833.125-1.506,3.843-1.087.545,1.811.051.135a22.561,22.561,0,0,1,1.069,3.576,1.065,1.065,0,0,0,.066.388,1,1,0,0,0,.2.327A1.6,1.6,0,0,0,150.623,152.463Z" transform="translate(-11.084 0.227)" fill="#fff"/>
    <path id="Path_242" data-name="Path 242" d="M169.636,151.022a.777.777,0,0,1-.023.257s-5.627,1.019-6.778,0a2.984,2.984,0,0,0-1.108-.649,2.816,2.816,0,0,0-1.254-.107s-2.178.064-2.541-.715a3.363,3.363,0,0,1-.018-1.585,16.53,16.53,0,0,1,.381-1.738l.088-.074.518-.453,6.065-.2h.045c-.03,1.348,2.058,2.895,2.058,2.895C169.291,149.551,169.617,150.561,169.636,151.022Z" transform="translate(-12.133 0.227)" fill="#fff"/>
    <path id="Path_243" data-name="Path 243" d="M169.638,151.018a.8.8,0,0,1-.025.257s-5.627,1.019-6.777,0a2.987,2.987,0,0,0-1.109-.649,2.821,2.821,0,0,0-1.255-.107s-2.179.064-2.542-.715a3.38,3.38,0,0,1-.018-1.587,5.1,5.1,0,0,1,2.683.862,5.842,5.842,0,0,0,2.934,1.711C164.173,150.832,168.006,150.965,169.638,151.018Z" transform="translate(-12.133 0.231)" opacity="0.1"/>
    <path id="Path_244" data-name="Path 244" d="M150.646,152.453a19.151,19.151,0,0,1-4.44,1.183,1.693,1.693,0,0,1-1.725-1.187,3.324,3.324,0,0,0,2.088.266,17.091,17.091,0,0,1,3.783-.536A1.55,1.55,0,0,0,150.646,152.453Z" transform="translate(-11.107 0.237)" opacity="0.1"/>
    <path id="Path_245" data-name="Path 245" d="M155.024,67.892c-2.171-.917-4.964-3.947-4.266-5.363a3.442,3.442,0,0,0,.271-1.137,11.414,11.414,0,0,0,.019-1.609,23.922,23.922,0,0,0-.291-2.619s6.777.166,6.382,1.251a4.373,4.373,0,0,0-.1,1.489c.032.617.114,1.319.2,1.911.117.81.237,1.43.237,1.43s-.416.631-.658.665S158.138,69.206,155.024,67.892Z" transform="translate(-11.581 0.089)" fill="#cf6f80"/>
    <path id="Path_246" data-name="Path 246" d="M149,147.9l-.051.061c-2.026-2.663-4.476.658-4.476.658l-.037-.072.126-1.506,3.843-1.087.545,1.811Z" transform="translate(-11.103 0.227)" opacity="0.1"/>
    <path id="Path_247" data-name="Path 247" d="M165.054,145.951a3.665,3.665,0,0,0-2.269.725c-.789.758-4.6.163-4.44,0a.653.653,0,0,0,.085-.273l.519-.452,6.064-.2C165.035,145.881,165.054,145.951,165.054,145.951Z" transform="translate(-12.172 0.227)" opacity="0.1"/>
    <path id="Path_248" data-name="Path 248" d="M151.38,125.073a5.342,5.342,0,0,0-.25.916,11.372,11.372,0,0,0-.114,2.6c.061,1.251,0,9.636,0,9.636a25.6,25.6,0,0,1-2.027,3.025c-.727.788,1.48,2.2,1.48,2.2.329,2.039-1.664,4.342-1.664,4.342-2.026-2.663-4.476.656-4.476.656s-1.332-2.5-1.664-3.4,1.3-1.51,1.875-1.875-.03-2.5-.03-2.5-.484-1.875-1.059-3.586.634-10.225.634-10.225a14.336,14.336,0,0,1,.212-2.041,3.753,3.753,0,0,0,.044-1.159c-.009-.13-.021-.237-.03-.312s-.015-.107-.015-.107l.023-.043.822-1.666S151.775,124.024,151.38,125.073Z" transform="translate(-10.964 0.189)" fill="#6c63ff"/>
    <path id="Path_249" data-name="Path 249" d="M164.906,145.79a3.688,3.688,0,0,0-2.269.714c-.789.749-4.6.165-4.44,0a4.39,4.39,0,0,0,.15-1.379c-2.239-3.323-.329-4.671-.329-4.671s-1-5.228-1.18-7.168c-.126-1.353-.282-5-.366-7.073-.036-.893-.057-1.51-.057-1.51l1.812-.392.235-.05,4.41-.964s.122.893.2,1.625a7.657,7.657,0,0,1,.067.942c-.028.358,0,1.478,0,1.478l.151,3.353a4.173,4.173,0,0,0-.151,1.086c.031.429.606,6.543.606,6.543s1,3.651.657,3.913S164.906,145.79,164.906,145.79Z" transform="translate(-12.024 0.192)" fill="#6c63ff"/>
    <path id="Path_250" data-name="Path 250" d="M157.149,58.422a4.372,4.372,0,0,0-.1,1.489,5.254,5.254,0,0,1-5.989-.122,23.917,23.917,0,0,0-.291-2.619S157.544,57.337,157.149,58.422Z" transform="translate(-11.59 0.089)" opacity="0.1"/>
    <path id="Path_251" data-name="Path 251" d="M159.578,54.489a6.411,6.411,0,0,1-1.6,4.345,5.313,5.313,0,0,1-7.956.1,6.38,6.38,0,0,1-1.7-4.3v-.147a6.394,6.394,0,0,1,1.649-4.325,5.315,5.315,0,0,1,7.958,0,6.4,6.4,0,0,1,1.648,4.325Z" transform="translate(-11.403 0.075)" fill="#cf6f80"/>
    <path id="Path_252" data-name="Path 252" d="M155.024,67.886c-2.171-.917-4.964-3.947-4.266-5.363a3.442,3.442,0,0,0,.271-1.137L154,64.042l1.838,1.639,1.4-3.866c.117.81.237,1.43.237,1.43s-.416.631-.658.665S158.138,69.2,155.024,67.886Z" transform="translate(-11.581 0.096)" opacity="0.1"/>
    <path id="Path_253" data-name="Path 253" d="M162.538,79.625l-2.481,45.313-3.236.23-8.382-26.274L149.813,67.7l.291-6.591,3.727,3.327,1.838,1.639,1.439-3.981,2.675,2.535Z" transform="translate(-11.411 0.095)" fill="#6c63ff"/>
    <path id="Path_254" data-name="Path 254" d="M151.52,125.073a5.342,5.342,0,0,0-.25.916,22.5,22.5,0,0,1-6.791-2.3l-.044-.025.015-.288v-.15l.822-1.666S151.914,124.024,151.52,125.073Z" transform="translate(-11.103 0.189)" opacity="0.1"/>
    <path id="Path_255" data-name="Path 255" d="M158.28,125.993a15.246,15.246,0,0,1-1.819.227c-.036-.893-.057-1.51-.057-1.51l1.822-.4Z" transform="translate(-12.023 0.194)" opacity="0.1"/>
    <path id="Path_256" data-name="Path 256" d="M163.253,124.922a11.775,11.775,0,0,1-4.591.471l-.023-1.132,4.411-.964S163.166,124.183,163.253,124.922Z" transform="translate(-12.195 0.192)" opacity="0.1"/>
    <path id="Path_257" data-name="Path 257" d="M156.856,125.7c-6.743,1.251-12.917-2.337-12.917-2.337l.059-1.215s.152-13.78-.271-14.837a27.16,27.16,0,0,1-.515-7.223c.24-.817-.876-13.151-.876-13.151l-.181-5.005L135.528,79l2.96-6.709a25.621,25.621,0,0,0,1.029-2.9c.515-1.743,2.9-3.454,2.9-3.454s2.45-1.709,3.419-1.644,2.238-1.512,2.238-1.512c.938-2.6,1.786-1.43,1.786-1.43a2.484,2.484,0,0,1-.046.384c-.329,2.851,5.318,11.86,5.4,12.021L155.762,88l.545,18.02Z" transform="translate(-10.419 0.095)" opacity="0.1"/>
    <path id="Path_258" data-name="Path 258" d="M156.66,125.7c-6.743,1.251-12.919-2.337-12.919-2.337l.061-1.215s.151-13.78-.273-14.837a27.15,27.15,0,0,1-.513-7.235c.242-.824-.882-13.146-.882-13.146l-.182-5L135.327,79l2.96-6.709a26.011,26.011,0,0,0,1.029-2.894c.514-1.737,2.912-3.45,2.912-3.45s2.45-1.709,3.416-1.645,2.243-1.51,2.243-1.51c.94-2.6,1.974-1.43,1.974-1.43,0,.125-.1.179-.046.384.724,2.765,5.137,11.86,5.218,12.021L155.579,88l.533,18.029Z" transform="translate(-10.403 0.095)" fill="#fff"/>
    <path id="Path_259" data-name="Path 259" d="M155.95,74.165c-.725-.329-4.567-5.1-4.567-5.1V67.984c-.139-.357-.972-.139-1.644.111l.289-6.591.33.3C151.076,64.564,155.871,74.006,155.95,74.165Z" transform="translate(-11.511 0.096)" opacity="0.1"/>
    <path id="Path_260" data-name="Path 260" d="M156.148,73.772c-.727-.331-4.569-5.1-4.569-5.1V67.589c-.139-.358-.97-.14-1.644.111l.284-6.583.329.295C151.274,64.172,156.067,73.612,156.148,73.772Z" transform="translate(-11.526 0.095)" fill="#fff"/>
    <path id="Path_261" data-name="Path 261" d="M144.608,97.491c.09,0,4.688-.526,4.688-.526s2.784,5.952,2.6,7.4-.513,2.729-1.633,2.5a45.708,45.708,0,0,0-6.027.178Z" transform="translate(-11.088 0.151)" opacity="0.1"/>
    <path id="Path_262" data-name="Path 262" d="M144.41,97.1c.092,0,4.689-.526,4.689-.526s2.783,5.962,2.6,7.391-.515,2.73-1.633,2.5a45.713,45.713,0,0,0-6.029.179Z" transform="translate(-11.073 0.15)" fill="#fff"/>
    <path id="Path_263" data-name="Path 263" d="M147.985,94.313s4.22,2.467,4.31,3.218-2.147-.329-2.631-.461a5.821,5.821,0,0,0-.968-.164L145.47,97Z" transform="translate(-11.183 0.147)" fill="#cf6f80"/>
    <path id="Path_264" data-name="Path 264" d="M155.153,74.454a.484.484,0,1,0-.444-.483A.464.464,0,0,0,155.153,74.454Z" transform="translate(-11.893 0.115)" opacity="0.1"/>
    <path id="Path_265" data-name="Path 265" d="M155.153,74.257a.484.484,0,1,0-.444-.483A.464.464,0,0,0,155.153,74.257Z" transform="translate(-11.893 0.114)" fill="#3f3d56"/>
    <path id="Path_266" data-name="Path 266" d="M156.038,95.314a.484.484,0,1,0-.444-.483A.464.464,0,0,0,156.038,95.314Z" transform="translate(-11.961 0.147)" opacity="0.1"/>
    <path id="Path_267" data-name="Path 267" d="M156.038,95.116a.484.484,0,1,0-.444-.483A.464.464,0,0,0,156.038,95.116Z" transform="translate(-11.961 0.147)" fill="#3f3d56"/>
    <path id="Path_268" data-name="Path 268" d="M155.634,84.884a.484.484,0,1,0-.444-.483A.464.464,0,0,0,155.634,84.884Z" transform="translate(-11.93 0.131)" opacity="0.1"/>
    <path id="Path_269" data-name="Path 269" d="M155.634,84.687a.484.484,0,1,0-.444-.483A.464.464,0,0,0,155.634,84.687Z" transform="translate(-11.93 0.13)" fill="#3f3d56"/>
    <path id="Path_270" data-name="Path 270" d="M166.068,96.855s.3.493,0,.715.03.79.03.79-.754.479-.422.913.121,2.384.121,2.384l-.907,1.644s.054,1.053.057,2.475c0,2.22-.12,5.341-.784,6.765l.089,11.674a13.532,13.532,0,0,1-5.84.877l-.394-18.733s.575-10.623.787-12.661a23.164,23.164,0,0,0,.151-3.191,38.577,38.577,0,0,0-.4-4.667s-.329-6.414-.362-8.189c-.015-.849.027-3.327.073-5.683.051-2.576.108-5.005.108-5.005l-.6-5.164s.6-.064.781.2a1.758,1.758,0,0,0,.263.22c1.038.761,4.7,3.1,4.7,3.1s2.025.876,2.511,2.131a19.537,19.537,0,0,0,1.057,2.5,8.317,8.317,0,0,1,.364,2.038s.7,3.092,1.242,3.616.936,3.848.936,3.848l-4.81,4.111s-.423,6.839-.513,7.1S166.068,96.855,166.068,96.855Z" transform="translate(-12.129 0.096)" fill="#fff"/>
    <path id="Path_271" data-name="Path 271" d="M166.25,96.855s.3.493,0,.715.028.79.028.79-.754.479-.422.913.121,2.384.121,2.384l-.9,1.644s.054,1.053.059,2.475c0,2.22-.12,5.341-.785,6.765l.09,11.674a13.529,13.529,0,0,1-5.84.877l-.393-18.733s.574-10.623.788-12.661a22.878,22.878,0,0,0,.15-3.191,38.839,38.839,0,0,0-.393-4.667s-.329-6.414-.364-8.189c-.015-.849.027-3.327.073-5.683.051-2.576.108-5.005.108-5.005l-.792-5.234s.792,0,.975.266a1.606,1.606,0,0,0,.263.22c1.036.761,4.7,3.1,4.7,3.1s2.021.876,2.515,2.131a20.565,20.565,0,0,0,1.057,2.5,8.316,8.316,0,0,1,.364,2.038s.7,3.092,1.242,3.616.937,3.849.937,3.849l-4.809,4.111s-.423,6.839-.515,7.1S166.25,96.855,166.25,96.855Z" transform="translate(-12.129 0.096)" fill="#fff"/>
    <path id="Path_272" data-name="Path 272" d="M160.5,68.481l.436,1.376-2.287,2.5c.051-2.576.109-5.005.109-5.005l-.793-5.232s.793,0,.975.266a1.6,1.6,0,0,0,.263.22l1.944,6.094Z" transform="translate(-12.144 0.097)" opacity="0.1"/>
    <path id="Path_273" data-name="Path 273" d="M160.3,68.087l.436,1.375-2.287,2.5c.05-2.576.109-5,.109-5l-.794-5.234s.794,0,.975.266a1.662,1.662,0,0,0,.263.22l1.955,6.1Z" transform="translate(-12.128 0.096)" fill="#fff"/>
    <path id="Path_274" data-name="Path 274" d="M159.578,54.489a6.605,6.605,0,0,1-.277,1.9.217.217,0,0,1-.093,0,.223.223,0,0,1-.084-.043,8.3,8.3,0,0,0-1.667-4.406,4.55,4.55,0,0,0-.9-1.019,1.671,1.671,0,0,0-1.227-.377c-.494.073-.93.438-1.427.484-.658.059-1.247-.436-1.9-.459a1.737,1.737,0,0,0-.768.188,1.879,1.879,0,0,0-.628.516,4.269,4.269,0,0,0-.749,1.507,9.494,9.494,0,0,0-.417,2.6c-.008.5-.053,1.128-.481,1.31a2.876,2.876,0,0,0-.113-1.09,2.726,2.726,0,0,0-.507-.948l-.01-.013v-.147a6.394,6.394,0,0,1,1.649-4.325,5.315,5.315,0,0,1,7.958,0,6.4,6.4,0,0,1,1.648,4.325Z" transform="translate(-11.403 0.075)" opacity="0.1"/>
    <path id="Path_275" data-name="Path 275" d="M156.146,44.783a3.592,3.592,0,0,0-2.733-.232c-.455.147-.884.384-1.347.5-.987.259-2.138-.021-2.984.606a3.855,3.855,0,0,0-1.016,1.473l-.658,1.36a9.3,9.3,0,0,0-.87,2.324,3.186,3.186,0,0,0,.419,2.4c.347.479.863.781,1.242,1.233a2.744,2.744,0,0,1,.506.951,2.906,2.906,0,0,1,.113,1.092c.427-.179.47-.81.48-1.31a9.531,9.531,0,0,1,.418-2.6,4.253,4.253,0,0,1,.748-1.507,1.892,1.892,0,0,1,.628-.517,1.742,1.742,0,0,1,.769-.189c.657.025,1.248.52,1.9.459.494-.045.931-.409,1.427-.483a1.661,1.661,0,0,1,1.227.377,4.418,4.418,0,0,1,.9,1.019,8.249,8.249,0,0,1,1.669,4.406c.186.147.454-.046.546-.275a6.878,6.878,0,0,1,.212-.715,2.5,2.5,0,0,1,.6-.577,2.674,2.674,0,0,0,.621-2.025,10.984,10.984,0,0,1-.023-2.2c.078-.441.252-.858.347-1.3a1.829,1.829,0,0,0-.118-1.307,1.954,1.954,0,0,0-1.625-.715c-.686-.064-1.3.018-1.737-.61a6.9,6.9,0,0,0-.69-.919C157.022,45.413,156.146,44.823,156.146,44.783Z" transform="translate(-11.26 0.069)" fill="#512e4e"/>
    <path id="Path_276" data-name="Path 276" d="M137.4,82.425l-1.717-3.452-.544,5.327a27.022,27.022,0,0,1,.242,2.73,27.706,27.706,0,0,0,1.24,3.616s4.3,8.321,6.051,8.748l5.92-4.6-1.572-2.17s-.544-.231-.68,0c0,0-2.921-5.459-3.222-5.852a2.138,2.138,0,0,1-.244-1.185,1.262,1.262,0,0,1-.3-1.019c.151-.493-.869-2.2-.869-2.2l.938-.953Z" transform="translate(-10.389 0.123)" opacity="0.1"/>
    <path id="Path_277" data-name="Path 277" d="M135.739,78.579l-.453.4-.545,5.327a26.757,26.757,0,0,1,.242,2.73,27.691,27.691,0,0,0,1.242,3.616s4.3,8.321,6.05,8.748l5.929-4.6-1.573-2.17s-.545-.231-.681,0c0,0-2.919-5.459-3.222-5.852a2.122,2.122,0,0,1-.242-1.185,1.262,1.262,0,0,1-.3-1.019c.151-.493-.879-2.2-.879-2.2l.938-.953Z" transform="translate(-10.358 0.122)" fill="#fff"/>
    <path id="Path_278" data-name="Path 278" d="M166.047,99.426c.329.434.121,2.386.121,2.386l-.907,1.633s.054,1.055.057,2.478l-1.526.518a.835.835,0,0,1-.426.03.87.87,0,0,1-.392-.186.976.976,0,0,1-.27-.361,1.067,1.067,0,0,1-.088-.456l.265-9.223,3.56,1.478c-.3.229.03.79.03.79S165.715,98.991,166.047,99.426Z" transform="translate(-12.501 0.15)" opacity="0.1"/>
    <path id="Path_279" data-name="Path 279" d="M166.243,99.229c.329.433.121,2.384.121,2.384l-.9,1.635s.054,1.053.059,2.475l-1.555.528a.821.821,0,0,1-.417.03.856.856,0,0,1-.383-.182.946.946,0,0,1-.264-.352,1.049,1.049,0,0,1-.087-.446l.265-9.256,3.559,1.482c-.3.229.028.79.028.79S165.911,98.8,166.243,99.229Z" transform="translate(-12.516 0.15)" fill="#fff"/>
    <path id="Path_280" data-name="Path 280" d="M167.571,94.833s-.242,1.679-.847,1.777-.876,2.715-1.48,2.624-.2-2.435-.183-2.889-.657-2.335-.151-2.762,2.119,0,2.119,0Z" transform="translate(-12.663 0.146)" fill="#cf6f80"/>
    <path id="Path_281" data-name="Path 281" d="M168.8,81.931l1.139-2.5a17.455,17.455,0,0,1,.456,2.926c0,1.019.634,1.119.634,1.119s.7.894.33,1.546a8,8,0,0,0-.513,2.268s.12,3.091-.425,3.518a2.52,2.52,0,0,0-.666,1.448,10.961,10.961,0,0,0-.967,2.4,24.986,24.986,0,0,1-1.391,3.584,5.162,5.162,0,0,0-3.358-5.557A3.922,3.922,0,0,1,164.307,91c.3-.361.775-.536.479-2.352a23.146,23.146,0,0,1-.086-4.444,29.75,29.75,0,0,1,.907-3.168Z" transform="translate(-12.61 0.124)" opacity="0.1"/>
    <path id="Path_282" data-name="Path 282" d="M169.334,79.071l1,.357a17.488,17.488,0,0,1,.455,2.926c0,1.019.635,1.119.635,1.119s.7.894.329,1.546a8.051,8.051,0,0,0-.514,2.268s.121,3.091-.423,3.518a2.492,2.492,0,0,0-.658,1.448,10.966,10.966,0,0,0-.967,2.4,24.973,24.973,0,0,1-1.393,3.584,5.163,5.163,0,0,0-3.358-5.557A3.916,3.916,0,0,1,164.71,91c.3-.361.775-.536.478-2.352a23.2,23.2,0,0,1-.085-4.444,29.75,29.75,0,0,1,.907-3.168Z" transform="translate(-12.641 0.123)" fill="#fff"/>
    <path id="Path_283" data-name="Path 283" d="M145.893,143.835s1.589-1.085,2.631-.3S145.893,143.835,145.893,143.835Z" transform="translate(-11.216 0.223)" opacity="0.1"/>
    <path id="Path_284" data-name="Path 284" d="M159.268,140.484a3.071,3.071,0,0,1,2.587,1.185C163.035,143.051,159.268,140.484,159.268,140.484Z" transform="translate(-12.244 0.219)" opacity="0.1"/>
    <g id="Group_9" data-name="Group 9" transform="translate(135.209 48.388)" opacity="0.1">
      <path id="Path_285" data-name="Path 285" d="M160.534,54.179c-.2.191-.462.325-.6.577a7.086,7.086,0,0,0-.21.715c-.092.231-.36.422-.547.275a8.287,8.287,0,0,0-1.668-4.406,4.4,4.4,0,0,0-.9-1.017,1.666,1.666,0,0,0-1.228-.379c-.494.073-.928.438-1.426.484-.657.059-1.248-.436-1.9-.459a1.734,1.734,0,0,0-.768.188,1.885,1.885,0,0,0-.627.517,4.252,4.252,0,0,0-.748,1.507,9.531,9.531,0,0,0-.418,2.6c-.01.5-.053,1.121-.476,1.307a2.877,2.877,0,0,1,0,.4c.428-.179.472-.81.481-1.31a9.531,9.531,0,0,1,.418-2.6,4.282,4.282,0,0,1,.748-1.507,1.892,1.892,0,0,1,.628-.517,1.737,1.737,0,0,1,.767-.189c.658.025,1.25.52,1.9.459.494-.045.931-.409,1.426-.483a1.669,1.669,0,0,1,1.229.377,4.461,4.461,0,0,1,.9,1.019,8.262,8.262,0,0,1,1.667,4.406c.187.147.455-.046.547-.275s.1-.5.21-.715c.135-.252.4-.388.6-.577a2.667,2.667,0,0,0,.621-2.025v-.068A2.462,2.462,0,0,1,160.534,54.179Z" transform="translate(-146.665 -48.31)" opacity="0.1"/>
      <path id="Path_286" data-name="Path 286" d="M148.2,54.051c-.377-.452-.893-.756-1.24-1.235a2.742,2.742,0,0,1-.478-1.462,2.932,2.932,0,0,0,.478,1.857c.347.479.863.781,1.24,1.233a2.809,2.809,0,0,1,.622,1.594,2.91,2.91,0,0,0-.125-1.063A2.744,2.744,0,0,0,148.2,54.051Z" transform="translate(-146.469 -48.308)" opacity="0.1"/>
      <path id="Path_287" data-name="Path 287" d="M162.483,48.658c-.1.438-.27.854-.349,1.3a4.492,4.492,0,0,0-.051.9,3.764,3.764,0,0,1,.051-.509c.079-.441.252-.858.349-1.3a2.46,2.46,0,0,0,.054-.74A2.708,2.708,0,0,1,162.483,48.658Z" transform="translate(-147.669 -48.313)" opacity="0.1"/>
    </g>
    <path id="Path_288" data-name="Path 288" d="M22.31,149.727c8.85,0,16.024-1.252,16.024-2.8s-7.174-2.8-16.024-2.8-16.024,1.253-16.024,2.8S13.461,149.727,22.31,149.727Z" transform="translate(-0.483 0.225)" fill="#6c63ff" opacity="0.1"/>
    <path id="Path_289" data-name="Path 289" d="M24.118,93.417H23.087v25.234h1.031Z" transform="translate(-1.775 0.146)" fill="#535461"/>
    <path id="Path_290" data-name="Path 290" d="M30.059,118.54l-.066,1.137-.09,1.61-.038.668-.092,1.609-.039.669-.09,1.608L28.6,144.085a3.207,3.207,0,0,1-.89,2.061,2.727,2.727,0,0,1-1.947.838H20.36a2.723,2.723,0,0,1-1.951-.843,3.2,3.2,0,0,1-.886-2.069l-1.041-18.244-.09-1.61-.038-.668-.094-1.609-.038-.669-.09-1.608-.066-1.137a1.735,1.735,0,0,1,.087-.641,1.644,1.644,0,0,1,.312-.553,1.5,1.5,0,0,1,.488-.373,1.379,1.379,0,0,1,.583-.134H28.591a1.4,1.4,0,0,1,.586.135,1.492,1.492,0,0,1,.488.377,1.644,1.644,0,0,1,.311.557A1.737,1.737,0,0,1,30.059,118.54Z" transform="translate(-1.235 0.182)" fill="#3f3d56"/>
    <path id="Path_291" data-name="Path 291" d="M30,119.671l-.092,1.6H16.228l-.092-1.6Z" transform="translate(-1.24 0.187)" fill="#9d9cb5"/>
    <path id="Path_292" data-name="Path 292" d="M29.88,121.941l-.09,1.6H16.369l-.092-1.6Z" transform="translate(-1.251 0.19)" fill="#9d9cb5"/>
    <path id="Path_293" data-name="Path 293" d="M29.761,124.213l-.09,1.6H16.51l-.092-1.6Z" transform="translate(-1.262 0.194)" fill="#9d9cb5"/>
    <path id="Path_294" data-name="Path 294" d="M13.335,102.87c6.006,4.722,8.507,12.109,8.507,12.109A25.285,25.285,0,0,1,8.6,109.986a29.185,29.185,0,0,1-8.512-12.1A25.269,25.269,0,0,1,13.335,102.87Z" transform="translate(-0.007 0.153)" fill="#6c63ff"/>
    <path id="Path_295" data-name="Path 295" d="M.087,97.882s7.51,4.532,9.919,8.284,11.829,8.816,11.829,8.816" transform="translate(-0.007 0.153)" fill="none" stroke="#535461" stroke-miterlimit="10" stroke-width="2"/>
    <path id="Path_296" data-name="Path 296" d="M18.03,93.368a15.865,15.865,0,0,1,4.631,6.589,13.741,13.741,0,0,1-7.208-2.715,15.957,15.957,0,0,1-4.631-6.591A13.753,13.753,0,0,1,18.03,93.368Z" transform="translate(-0.832 0.141)" fill="#6c63ff"/>
    <path id="Path_297" data-name="Path 297" d="M10.822,90.651s4.088,2.467,5.4,4.508,6.438,4.8,6.438,4.8" transform="translate(-0.832 0.141)" fill="none" stroke="#535461" stroke-miterlimit="10" stroke-width="2"/>
    <path id="Path_298" data-name="Path 298" d="M28.413,99.748a22.869,22.869,0,0,0-4.549,10.347,19.743,19.743,0,0,0,9.045-5.9,22.919,22.919,0,0,0,4.549-10.346A19.777,19.777,0,0,0,28.413,99.748Z" transform="translate(-1.835 0.146)" fill="#6c63ff"/>
    <path id="Path_299" data-name="Path 299" d="M37.46,93.851s-4.891,4.6-6.134,7.765-7.463,8.478-7.463,8.478" transform="translate(-1.835 0.146)" fill="none" stroke="#535461" stroke-miterlimit="10" stroke-width="2"/>
  </g>
</svg>
