<svg xmlns="http://www.w3.org/2000/svg" width="192.01" height="154.24" viewBox="0 0 192.01 154.24">
  <g id="Group_6" data-name="Group 6" transform="translate(-1432.613 -690.226)">
    <path id="Path_28" data-name="Path 28" d="M528.9,153.108c18.831,0,34.1-3.157,34.1-7.051s-15.265-7.052-34.1-7.052-34.1,3.157-34.1,7.052S510.069,153.108,528.9,153.108Z" transform="translate(1061.627 691.358)" fill="#f2f2f2"/>
    <path id="Path_29" data-name="Path 29" d="M396.349,89.652c.2.474.418.953.639,1.424l-.473.222c-.224-.476-.441-.96-.646-1.439Z" transform="translate(1046.692 690.509)" fill="#e6e6e6"/>
    <path id="Path_30" data-name="Path 30" d="M480.732,51.745c.3.637.586,1.285.853,1.928l-.483.2c-.4-.962-.842-1.932-1.308-2.87l.468-.233Q480.5,51.253,480.732,51.745Zm-1.986-3.781-.451.264c-.53-.906-1.1-1.8-1.684-2.666l.432-.294C477.637,46.141,478.21,47.048,478.746,47.963Zm3.963,8.694c.34,1.005.648,2.033.917,3.055l-.505.133c-.266-1.01-.571-2.026-.907-3.02Zm-7.55-13.962-.411.323c-.647-.823-1.331-1.634-2.033-2.41l.387-.351C473.812,41.042,474.505,41.862,475.159,42.694Zm9.173,20.128c.2,1.04.362,2.1.489,3.152l-.519.063c-.125-1.04-.288-2.089-.484-3.117Zm-13.45-24.855-.362.377c-.754-.726-1.543-1.434-2.344-2.1l.336-.4C469.322,36.518,470.119,37.234,470.882,37.968Zm14.21,31.19c.053,1.06.07,2.135.051,3.194l-.523-.01c.019-1.047,0-2.109-.05-3.157ZM466,33.879l-.307.423c-.847-.615-1.725-1.209-2.611-1.764l.278-.444C464.256,32.656,465.145,33.257,466,33.879ZM484.974,75.54c-.093,1.057-.223,2.123-.388,3.169l-.516-.081c.163-1.034.291-2.088.383-3.133ZM460.6,30.5l-.247.461c-.922-.494-1.874-.963-2.827-1.392l.214-.477C458.709,29.522,459.671,30,460.6,30.5Zm23.38,51.348c-.236,1.032-.51,2.07-.815,3.085l-.5-.151c.3-1,.573-2.03.806-3.051Zm-29.19-53.966-.181.49c-.982-.364-1.988-.7-2.992-1l.148-.5C452.784,27.17,453.8,27.509,454.794,27.877ZM482.146,87.95c-.374.992-.786,1.982-1.226,2.945l-.475-.217c.435-.952.842-1.931,1.212-2.912ZM448.681,26.073l-.114.51c-1.02-.227-2.063-.422-3.1-.579l.079-.517C446.594,25.646,447.649,25.843,448.681,26.073ZM479.5,93.749c-.505.931-1.048,1.856-1.614,2.749l-.442-.28c.56-.883,1.1-1.8,1.6-2.719Zm-37.12-68.631-.043.521c-1.044-.086-2.1-.136-3.151-.149l.006-.523c1.059.014,2.132.064,3.188.151ZM476.085,99.13c-.627.853-1.291,1.695-1.974,2.5l-.4-.338c.676-.8,1.332-1.631,1.952-2.474ZM436,25.035l.03.522c-1.046.059-2.1.155-3.144.286l-.065-.519C433.871,25.192,434.94,25.095,436,25.035Zm35.973,78.956c-.738.759-1.512,1.5-2.3,2.209l-.349-.39c.78-.7,1.545-1.433,2.275-2.184Zm-42.3-78.158.1.513c-1.027.2-2.06.443-3.07.715l-.136-.5C427.588,26.281,428.632,26.038,429.671,25.833Zm37.553,82.411c-.835.65-1.7,1.279-2.582,1.871l-.292-.434c.868-.585,1.727-1.207,2.553-1.85Zm-43.7-80.752.17.495c-.988.341-1.978.72-2.943,1.129l-.2-.482C421.519,28.22,422.52,27.836,423.519,27.492ZM461.937,111.8c-.915.529-1.861,1.034-2.812,1.5l-.23-.469c.941-.462,1.876-.962,2.781-1.484ZM417.886,30.441c-.936.472-1.866.982-2.765,1.515l-.267-.45c.91-.539,1.85-1.055,2.8-1.532Zm-5.42,3.215c-.863.6-1.715,1.227-2.532,1.879l-.325-.409c.826-.659,1.688-1.3,2.56-1.9Zm-4.928,3.928c-.771.707-1.527,1.449-2.247,2.207l-.379-.36c.729-.766,1.493-1.517,2.273-2.232ZM403.2,42.147c-.667.807-1.314,1.647-1.923,2.5l-.425-.305c.616-.859,1.271-1.708,1.945-2.524Zm-3.672,5.119c-.551.892-1.078,1.813-1.566,2.737l-.462-.244c.493-.935,1.026-1.866,1.583-2.768Zm-2.941,5.575c-.424.957-.821,1.941-1.179,2.925l-.491-.179c.362-1,.763-1.991,1.192-2.959Zm-2.157,5.925c-.291,1.008-.55,2.037-.771,3.06l-.511-.111c.224-1.034.486-2.075.78-3.094ZM393.1,64.931c-.151,1.038-.268,2.094-.348,3.137l-.521-.04c.081-1.055.2-2.123.351-3.173Zm-.479,6.291c-.007,1.049.022,2.11.086,3.156l-.521.032c-.066-1.057-.1-2.131-.087-3.192Zm.39,6.3c.137,1.038.312,2.085.519,3.111l-.512.1c-.21-1.038-.387-2.1-.525-3.147Zm1.252,6.179c.278,1.009.6,2.021.941,3.01l-.493.173c-.351-1-.671-2.024-.952-3.044Z" transform="translate(1046.692 690.069)" fill="#e6e6e6"/>
    <path id="Path_31" data-name="Path 31" d="M455.948,114.157l.2.484c-.488.2-.983.392-1.47.571l-.18-.49C454.976,114.544,455.465,114.354,455.948,114.157Z" transform="translate(1052.53 690.84)" fill="#e6e6e6"/>
    <path id="Path_32" data-name="Path 32" d="M480.516,92.266a16.216,16.216,0,0,1-1.709-6.408c-.391-3.915-.139-10.515,3.281-19.721a39.789,39.789,0,0,0-1.575-31.652l.394-.228a34.968,34.968,0,0,1,3.293,9.336,40.754,40.754,0,0,1-1.686,22.7c-6.468,17.41-1.659,25.652-1.61,25.733Z" transform="translate(1054.809 690.023)" fill="#3f3d56"/>
    <path id="Path_33" data-name="Path 33" d="M477.982,33.462a2.957,2.957,0,1,0-2.955-2.957A2.956,2.956,0,0,0,477.982,33.462Z" transform="translate(1054.467 689.667)" fill="#6c63ff"/>
    <path id="Path_34" data-name="Path 34" d="M487.3,44.38a2.957,2.957,0,1,0-2.955-2.957A2.956,2.956,0,0,0,487.3,44.38Z" transform="translate(1055.28 689.822)" fill="#3f3d56"/>
    <path id="Path_35" data-name="Path 35" d="M480.937,51.659a2.957,2.957,0,1,0-2.955-2.957A2.956,2.956,0,0,0,480.937,51.659Z" transform="translate(1054.725 689.924)" fill="#6c63ff"/>
    <path id="Path_36" data-name="Path 36" d="M488.666,57.8a2.957,2.957,0,1,0-2.955-2.957A2.956,2.956,0,0,0,488.666,57.8Z" transform="translate(1055.399 690.011)" fill="#6c63ff"/>
    <path id="Path_37" data-name="Path 37" d="M478.664,67.354a2.957,2.957,0,1,0-2.955-2.957A2.956,2.956,0,0,0,478.664,67.354Z" transform="translate(1054.526 690.146)" fill="#3f3d56"/>
    <path id="Path_38" data-name="Path 38" d="M482.3,92.375s-2.955-7.279,5.91-12.738Z" transform="translate(1055.083 690.458)" fill="#3f3d56"/>
    <path id="Path_39" data-name="Path 39" d="M478.667,92.243s-1.345-7.741-11.754-7.674Z" transform="translate(1054.009 690.487)" fill="#3f3d56"/>
    <path id="Path_40" data-name="Path 40" d="M459.159,37.978a.452.452,0,0,0-.322.835,13.4,13.4,0,0,1,3.993,3.408c5.1,6.473,3.316,16.381-3.975,22.129a17.956,17.956,0,0,1-11.424,3.95,17.389,17.389,0,0,0,15.331-3.377c7.292-5.748,9.071-15.656,3.975-22.129A13.713,13.713,0,0,0,459.159,37.978Z" transform="translate(1052.624 689.922)" fill="#3f3d56"/>
    <path id="Path_41" data-name="Path 41" d="M462.83,42.319c5.1,6.473,3.316,16.381-3.975,22.129a18.216,18.216,0,0,1-9.282,3.854,17.989,17.989,0,0,0,11.143-3.952c7.292-5.748,9.071-15.656,3.975-22.129a13.5,13.5,0,0,0-5.5-4.137l-.034-.008a.451.451,0,0,0-.318.835A13.4,13.4,0,0,1,462.83,42.319Z" transform="translate(1052.669 689.921)" fill="#6c63ff"/>
    <path id="Path_42" data-name="Path 42" d="M440.227,32.325l3.008,5.214,3.009,5.214H434.211l3.008-5.214Z" transform="translate(1051.062 689.749)" fill="#6c63ff"/>
    <path id="Path_43" data-name="Path 43" d="M451.2,32.325l3.009,5.214,3.008,5.214H445.183l3.008-5.214Z" transform="translate(1052.055 689.749)" fill="#6c63ff"/>
    <path id="Path_44" data-name="Path 44" d="M439.879,35.044l1.856,3.217,1.856,3.217h-7.424l1.856-3.217Z" transform="translate(1051.115 689.775)" fill="#3f3d56"/>
    <path id="Path_45" data-name="Path 45" d="M451.156,35.044l1.856,3.217,1.856,3.217h-7.424l1.856-3.217Z" transform="translate(1052.108 689.775)" fill="#3f3d56"/>
    <path id="Path_46" data-name="Path 46" d="M466.874,69.418a21.182,21.182,0,1,1-1.985-8.954A21.181,21.181,0,0,1,466.874,69.418Z" transform="translate(1050.973 690.182)" fill="#3f3d56"/>
    <path id="Path_47" data-name="Path 47" d="M459.307,53.19c-1.77,4.626-7.186,7.993-13.594,7.993S433.89,57.816,432.12,53.19a21.148,21.148,0,0,1,27.187,0Z" transform="translate(1051.295 689.993)" opacity="0.1"/>
    <path id="Path_48" data-name="Path 48" d="M445.713,59.516c7.846,0,14.206-5.048,14.206-11.274s-6.36-11.274-14.206-11.274-14.205,5.048-14.205,11.274S437.868,59.516,445.713,59.516Z" transform="translate(1051.272 689.866)" fill="#3f3d56"/>
    <path id="Path_49" data-name="Path 49" d="M439.052,49.321a2.647,2.647,0,1,0-2.645-2.647A2.646,2.646,0,0,0,439.052,49.321Z" transform="translate(1051.081 689.898)" fill="#fff"/>
    <path id="Path_50" data-name="Path 50" d="M452.375,49.321a2.647,2.647,0,1,0-2.645-2.647A2.646,2.646,0,0,0,452.375,49.321Z" transform="translate(1052.24 689.898)" fill="#fff"/>
    <path id="Path_51" data-name="Path 51" d="M439.052,48.34a1.667,1.667,0,1,0-1.666-1.667A1.666,1.666,0,0,0,439.052,48.34Z" transform="translate(1051.116 689.903)" fill="#3f3d56"/>
    <path id="Path_52" data-name="Path 52" d="M452.375,48.34a1.667,1.667,0,1,0-1.665-1.667A1.666,1.666,0,0,0,452.375,48.34Z" transform="translate(1052.261 689.903)" fill="#3f3d56"/>
    <path id="Path_53" data-name="Path 53" d="M442.743,50.889a.49.49,0,1,0-.49-.49A.49.49,0,0,0,442.743,50.889Z" transform="translate(1051.469 689.961)" fill="#6c63ff"/>
    <path id="Path_54" data-name="Path 54" d="M442.554,50.274c-.96.437-1.6,1.325-2.606,1.707a4.776,4.776,0,0,1-3.2.06c-.18-.06-.257.224-.078.284a5.046,5.046,0,0,0,3.215-.008,4.861,4.861,0,0,0,1.37-.729,7.941,7.941,0,0,1,1.45-1.06C442.875,50.45,442.726,50.2,442.554,50.274Z" transform="translate(1051.119 689.971)" fill="#6c63ff"/>
    <path id="Path_55" data-name="Path 55" d="M442.937,50.149a5.6,5.6,0,0,0-1.408.533,4.823,4.823,0,0,1-1.623.457,4.769,4.769,0,0,1-3.036-.769c-.158-.1-.306.151-.148.254a5.038,5.038,0,0,0,3.033.82,4.81,4.81,0,0,0,1.517-.329,8.858,8.858,0,0,1,1.743-.682c.186-.032.108-.315-.078-.284Z" transform="translate(1051.133 689.965)" fill="#6c63ff"/>
    <path id="Path_56" data-name="Path 56" d="M442.675,49.958c-.748.707-1.059,1.727-1.853,2.411a4.762,4.762,0,0,1-3.067,1.153.147.147,0,0,0-.1.045.148.148,0,0,0,0,.2.147.147,0,0,0,.1.045,5.043,5.043,0,0,0,3.017-1.03,4.858,4.858,0,0,0,1.023-1.055,9.332,9.332,0,0,1,1.088-1.565c.137-.13-.071-.338-.208-.208Z" transform="translate(1051.187 689.974)" fill="#6c63ff"/>
    <path id="Path_57" data-name="Path 57" d="M447.9,50.889a.49.49,0,1,0-.489-.49A.49.49,0,0,0,447.9,50.889Z" transform="translate(1051.907 689.961)" fill="#6c63ff"/>
    <path id="Path_58" data-name="Path 58" d="M447.94,50.528a7.687,7.687,0,0,1,1.435,1.048,4.888,4.888,0,0,0,1.385.74,5.036,5.036,0,0,0,3.215.008c.179-.059.1-.343-.078-.284a4.775,4.775,0,0,1-3.2-.06c-1.009-.383-1.645-1.271-2.606-1.707C447.918,50.2,447.768,50.45,447.94,50.528Z" transform="translate(1052.106 689.971)" fill="#6c63ff"/>
    <path id="Path_59" data-name="Path 59" d="M447.628,50.433a7.985,7.985,0,0,1,1.672.653,4.866,4.866,0,0,0,1.589.358,5.036,5.036,0,0,0,3.032-.82c.158-.1.011-.358-.148-.254a4.75,4.75,0,0,1-3.036.769,4.886,4.886,0,0,1-1.623-.457,5.631,5.631,0,0,0-1.408-.533c-.185-.032-.265.252-.078.284Z" transform="translate(1052.084 689.965)" fill="#6c63ff"/>
    <path id="Path_60" data-name="Path 60" d="M447.761,50.166a9.59,9.59,0,0,1,1.088,1.565,4.862,4.862,0,0,0,1.022,1.055,5.044,5.044,0,0,0,3.017,1.03.147.147,0,0,0,0-.294,4.747,4.747,0,0,1-3.067-1.153c-.79-.686-1.105-1.7-1.853-2.411-.137-.13-.345.078-.207.208Z" transform="translate(1052.065 689.974)" fill="#6c63ff"/>
    <path id="Path_61" data-name="Path 61" d="M439.052,92.063c2.164,0,3.918-1.009,3.918-2.255s-1.754-2.255-3.918-2.255-3.919,1.009-3.919,2.255S436.887,92.063,439.052,92.063Z" transform="translate(1051.035 690.503)" fill="#3f3d56"/>
    <path id="Path_62" data-name="Path 62" d="M452.375,92.063c2.164,0,3.919-1.009,3.919-2.255s-1.755-2.255-3.919-2.255-3.919,1.009-3.919,2.255S450.211,92.063,452.375,92.063Z" transform="translate(1052.211 690.503)" fill="#3f3d56"/>
    <path id="Path_63" data-name="Path 63" d="M445.322,52.164c1.785,0,3.232-.834,3.232-1.863s-1.447-1.863-3.232-1.863-3.233.834-3.233,1.863S443.536,52.164,445.322,52.164Z" transform="translate(1051.609 689.953)" fill="#6c63ff"/>
    <path id="Path_64" data-name="Path 64" d="M385.921.934V127.4H570.2V.934Zm23.747,1.592a3.158,3.158,0,0,1,1.65.46,2.792,2.792,0,0,1,1.093,1.225,2.517,2.517,0,0,1,.169,1.577,2.67,2.67,0,0,1-.812,1.4,3.061,3.061,0,0,1-1.52.747,3.211,3.211,0,0,1-1.715-.155A2.932,2.932,0,0,1,407.2,6.773a2.574,2.574,0,0,1-.5-1.516,2.625,2.625,0,0,1,.869-1.93A3.107,3.107,0,0,1,409.668,2.527ZM391.858,7.986a3.158,3.158,0,0,1-1.65-.46A2.792,2.792,0,0,1,389.116,6.3a2.525,2.525,0,0,1-.17-1.577,2.679,2.679,0,0,1,.813-1.4,3.057,3.057,0,0,1,1.52-.747,3.211,3.211,0,0,1,1.715.155,2.932,2.932,0,0,1,1.332,1.005,2.574,2.574,0,0,1,.5,1.516,2.625,2.625,0,0,1-.869,1.93A3.107,3.107,0,0,1,391.858,7.986Zm5.936-2.73a2.575,2.575,0,0,1,.5-1.516,2.933,2.933,0,0,1,1.332-1.005,3.211,3.211,0,0,1,1.715-.155,3.061,3.061,0,0,1,1.52.747,2.67,2.67,0,0,1,.812,1.4,2.516,2.516,0,0,1-.169,1.577,2.788,2.788,0,0,1-1.094,1.225,3.154,3.154,0,0,1-1.649.46,3.107,3.107,0,0,1-2.1-.8A2.625,2.625,0,0,1,397.794,5.256ZM499.954,91.92H400.763V24.136h99.191Z" transform="translate(1046.692 689.291)" fill="#f2f2f2"/>
    <path id="Path_65" data-name="Path 65" d="M551.631,3.209h-5.456v.682h5.456Z" transform="translate(1061.627 689.291)" fill="#fff"/>
    <path id="Path_66" data-name="Path 66" d="M551.631,5.256h-5.456v.682h5.456Z" transform="translate(1061.627 689.291)" fill="#fff"/>
    <path id="Path_67" data-name="Path 67" d="M551.631,7.3h-5.456v.682h5.456Z" transform="translate(1061.627 689.291)" fill="#fff"/>
    <path id="Path_68" data-name="Path 68" d="M546.175,23H505.032v2.047h41.143Z" transform="translate(1061.627 689.291)" fill="#fff"/>
    <path id="Path_69" data-name="Path 69" d="M546.175,30.05H505.032V32.1h41.143Z" transform="translate(1061.627 689.692)" fill="#fff"/>
    <path id="Path_70" data-name="Path 70" d="M546.175,37.1H505.032v2.047h41.143Z" transform="translate(1061.627 689.789)" fill="#fff"/>
    <path id="Path_71" data-name="Path 71" d="M546.175,44.153H505.032V46.2h41.143Z" transform="translate(1061.627 689.886)" fill="#fff"/>
    <path id="Path_72" data-name="Path 72" d="M546.175,51.2H505.032v2.047h41.143Z" transform="translate(1061.627 689.983)" fill="#fff"/>
    <path id="Path_73" data-name="Path 73" d="M546.175,58.256H505.032V60.3h41.143Z" transform="translate(1061.627 690.08)" fill="#fff"/>
    <path id="Path_74" data-name="Path 74" d="M546.175,65.307H505.032v2.047h41.143Z" transform="translate(1061.627 690.177)" fill="#fff"/>
    <path id="Path_75" data-name="Path 75" d="M546.175,72.358H505.032v2.047h41.143Z" transform="translate(1061.627 690.274)" fill="#fff"/>
    <path id="Path_76" data-name="Path 76" d="M546.175,79.41H505.032v2.047h41.143Z" transform="translate(1061.627 690.372)" fill="#fff"/>
    <path id="Path_77" data-name="Path 77" d="M546.175,86.461H505.032v2.047h41.143Z" transform="translate(1061.627 690.469)" fill="#fff"/>
    <path id="Path_78" data-name="Path 78" d="M405.015,99.427a2.73,2.73,0,1,0-2.727-2.73A2.729,2.729,0,0,0,405.015,99.427Z" transform="translate(1046.692 690.602)" fill="#fff"/>
    <path id="Path_79" data-name="Path 79" d="M414.335,99.427a2.73,2.73,0,1,0-2.728-2.73A2.729,2.729,0,0,0,414.335,99.427Z" transform="translate(1046.692 690.602)" fill="#fff"/>
    <path id="Path_80" data-name="Path 80" d="M423.655,99.427a2.73,2.73,0,1,0-2.728-2.73A2.729,2.729,0,0,0,423.655,99.427Z" transform="translate(1049.738 690.602)" fill="#fff"/>
    <path id="Path_81" data-name="Path 81" d="M546.175,110.117H505.032v11.6h41.143Z" transform="translate(1061.627 690.896)" fill="#6c63ff"/>
    <path id="Path_82" data-name="Path 82" d="M525.481,100.893l.46,16.116,4.908,18.879s-1.073,3.223-.306,3.991,4.294,2.148,4.294,2.148l-2.914-40.213Z" transform="translate(1059.119 691.358)" fill="#2f2e41"/>
    <path id="Path_83" data-name="Path 83" d="M536.137,139.8s1.75,3.853-.7,4.2-13.77,1.284-13.069-.7,9.218-3.853,9.218-3.853Z" transform="translate(1061.627 691.358)" fill="#2f2e41"/>
    <path id="Path_84" data-name="Path 84" d="M542.66,86.619s-1.841,9.977-3.068,11.665.614,13.967.614,13.967,2.761,17.651,1.533,20.414-.92,1.842-.766,3.377.46,2.762,0,4.144a12.036,12.036,0,0,0-.614,1.995c-.153.767,0,4.912,0,4.912s-6.6,2.3-7.669-1.075c0,0,1.534-2.149,1.074-3.837a20.429,20.429,0,0,1-.767-5.219v-3.223l-7.056-26.4-1.687-9.516s.46-9.67,2.147-10.591S542.66,86.619,542.66,86.619Z" transform="translate(1061.627 691.358)" fill="#2f2e41"/>
    <path id="Path_85" data-name="Path 85" d="M539.9,146.325s2.3,5.065-.92,5.525-18.1,1.689-17.179-.92,12.117-5.065,12.117-5.065Z" transform="translate(1061.627 691.358)" fill="#2f2e41"/>
    <path id="Path_86" data-name="Path 86" d="M536.983,42.421a6.14,6.14,0,1,0-6.135-6.139A6.137,6.137,0,0,0,536.983,42.421Z" transform="translate(1061.627 689.723)" fill="#ffb9b9"/>
    <path id="Path_87" data-name="Path 87" d="M541.294,38.994l-.114,7.84-7.522.026s1.909-6.138,1.054-7.421S541.294,38.994,541.294,38.994Z" transform="translate(1061.627 689.833)" fill="#ffb9b9"/>
    <path id="Path_88" data-name="Path 88" d="M530.082,51.163s5.369-6.907,9.51-3.991S545.267,57,545.267,57l-.92,19.339s-2.3,2.763-.92,4.6,2.147,1.381,1.073,2.763-2.3,2.456-1.84,2.916-.46.767-.46.767l-16.259.46s.46-.614-.92-2.456.306-4.3,0-5.219-.614.154-.767-2S530.082,51.163,530.082,51.163Z" transform="translate(1061.627 690.14)" fill="#3f3d56"/>
    <path id="Path_89" data-name="Path 89" d="M531.616,90.763s-.307,3.837-2.607,4.451a1.8,1.8,0,0,1-1.982-.847,3.771,3.771,0,0,1-.12-4.229l.568-.91Z" transform="translate(1058.899 690.54)" fill="#ffb9b9"/>
    <path id="Path_90" data-name="Path 90" d="M545.8,43.412a26.928,26.928,0,0,1,0,3.53,1.469,1.469,0,0,0,0,1.381,2.543,2.543,0,0,1-.153,2.149c-.307.153.613,1.535.306,2.456a6.651,6.651,0,0,1-.766,1.535c-.154.307-.4.857-.4.857s-4.508-9.606-8.189-7.3a26.666,26.666,0,0,1-6.6,3.07S532,40.342,545.8,43.412Z" transform="translate(1061.627 689.911)" fill="#3f3d56"/>
    <path id="Path_91" data-name="Path 91" d="M539.132,50.549s4.908.46,4.6,6.907.461,16.577.461,16.577-8.436,12.893-9.817,13.814-1.534.768-1.38,1.535.306,1.381-.307,2a5.3,5.3,0,0,1-1.227.921s-4.908-1.688-4.448-3.223a15.79,15.79,0,0,1,2.607-3.991s3.681-5.986,3.835-6.907.153-.767.613-1.228a7.209,7.209,0,0,0,1.688-3.223V70.809l-1.286-15.585a4.516,4.516,0,0,1,1.2-3.5A3.9,3.9,0,0,1,539.132,50.549Z" transform="translate(1061.627 690.219)" fill="#3f3d56"/>
    <path id="Path_92" data-name="Path 92" d="M533.026,31.547a2.5,2.5,0,0,1-2.316-.531,1.894,1.894,0,0,1-.375-2.267,2.989,2.989,0,0,1,1.767-1.125,15.633,15.633,0,0,1,4.645-.709,4.169,4.169,0,0,1,2.178.453c.318.192.587.457.9.655a11.241,11.241,0,0,0,1.907.739,4.894,4.894,0,0,1,2.787,2.954,5.862,5.862,0,0,1,.271,1.388,7.6,7.6,0,0,1-.663,3.769c-.855,1.868-2.484,3.438-2.714,5.479-.877-.737-1.134-1.972-1.814-2.894a3.747,3.747,0,0,0-2.047-1.391,1.194,1.194,0,0,1-.62-.277,1.033,1.033,0,0,1-.194-.559l-.421-3.033a2.608,2.608,0,0,0-.675-1.7,2.4,2.4,0,0,0-1.005-.436,16.194,16.194,0,0,0-2.623-.428" transform="translate(1061.627 689.684)" fill="#2f2e41"/>
    <path id="Path_93" data-name="Path 93" d="M543.448,76.225l-8.611,11.181S542.766,80.774,543.448,76.225Z" transform="translate(1061.627 690.395)" opacity="0.1"/>
    <path id="Path_94" data-name="Path 94" d="M535.183,63.846l.081,10.56-5,7.506,4.091-8.416Z" transform="translate(1061.627 690.261)" opacity="0.1"/>
  </g>
</svg>
