<svg xmlns="http://www.w3.org/2000/svg" width="192.01" height="154.259" viewBox="0 0 192.01 154.259">
  <g id="Group_5" data-name="Group 5" transform="translate(-1047 -691.819)">
    <path id="Path_95" data-name="Path 95" d="M190.9,91.947H44.288a1.423,1.423,0,0,1-1.422-1.421V3.949a1.423,1.423,0,0,1,1.422-1.421H190.9a1.423,1.423,0,0,1,1.422,1.421V90.526a1.423,1.423,0,0,1-1.422,1.421ZM44.288,3.1a.854.854,0,0,0-.854.853V90.526a.854.854,0,0,0,.854.853H190.9a.854.854,0,0,0,.853-.853V3.949A.854.854,0,0,0,190.9,3.1Z" transform="translate(1046.692 689.291)" fill="#676767"/>
    <path id="Path_96" data-name="Path 96" d="M103.46,9.443a1.127,1.127,0,0,0,0,2.253h28.276a1.127,1.127,0,0,0,.04-2.253H103.46Z" transform="translate(1046.692 689.291)" fill="#3f3d56"/>
    <path id="Path_97" data-name="Path 97" d="M138.148,9.129a.221.221,0,0,0,0,.313h0l.953.952h-2.35a.222.222,0,0,0-.156.065.221.221,0,0,0,0,.313.222.222,0,0,0,.156.065h2.35l-.953.952a.213.213,0,0,0-.048.072.22.22,0,0,0,0,.17.214.214,0,0,0,.048.072.226.226,0,0,0,.072.048.222.222,0,0,0,.242-.048l1.331-1.33a.221.221,0,0,0,0-.314l-1.331-1.33a.222.222,0,0,0-.314,0Z" transform="translate(1046.692 689.291)" fill="#e6e6e6"/>
    <path id="Path_98" data-name="Path 98" d="M97.036,9.129a.222.222,0,0,1,0,.313h0l-.953.952h2.349a.222.222,0,1,1,0,.443h-2.35l.953.952a.222.222,0,0,1-.314.314l-1.331-1.33a.221.221,0,0,1,0-.314l1.331-1.33a.222.222,0,0,1,.314,0Z" transform="translate(1046.692 689.291)" fill="#e6e6e6"/>
    <path id="Path_99" data-name="Path 99" d="M42.781,96.716a6.5,6.5,0,1,1,4.6-1.9A6.506,6.506,0,0,1,42.781,96.716Z" transform="translate(1046.692 689.291)" fill="#6c63ff"/>
    <path id="Path_100" data-name="Path 100" d="M45.346,89.582H43.422V87.661a.641.641,0,0,0-1.282,0v1.921H40.216a.641.641,0,1,0,0,1.281H42.14v1.921a.641.641,0,0,0,1.282,0V90.863h1.924a.641.641,0,1,0,0-1.281Z" transform="translate(1046.692 689.291)" fill="#fff"/>
    <path id="Path_101" data-name="Path 101" d="M74.255,20.976H54.72V34.237H74.255Z" transform="translate(1046.692 689.291)" fill="#b0b0b0"/>
    <path id="Path_102" data-name="Path 102" d="M100.807,20.976H81.272V34.237h19.535Z" transform="translate(1046.692 689.291)" fill="#b0b0b0"/>
    <path id="Path_103" data-name="Path 103" d="M127.359,20.976H107.824V34.237h19.535Z" transform="translate(1046.692 689.291)" fill="#b0b0b0"/>
    <path id="Path_104" data-name="Path 104" d="M153.912,20.976H134.377V34.237h19.535Z" transform="translate(1046.692 689.291)" fill="#b0b0b0"/>
    <path id="Path_105" data-name="Path 105" d="M180.464,20.976H160.929V34.237h19.535Z" transform="translate(1046.692 689.291)" fill="#b0b0b0"/>
    <path id="Path_106" data-name="Path 106" d="M74.326,44.278H54.791V57.539H74.326Z" transform="translate(1046.692 689.291)" fill="#b0b0b0"/>
    <path id="Path_107" data-name="Path 107" d="M100.879,44.278H81.344V57.539h19.535Z" transform="translate(1046.692 689.291)" fill="#b0b0b0"/>
    <path id="Path_108" data-name="Path 108" d="M127.431,44.278H107.9V57.539h19.535Z" transform="translate(1046.692 689.291)" fill="#b0b0b0"/>
    <path id="Path_109" data-name="Path 109" d="M153.983,44.278H134.449V57.539h19.534Z" transform="translate(1046.692 689.291)" fill="#b0b0b0"/>
    <path id="Path_110" data-name="Path 110" d="M180.536,44.278H161V57.539h19.535Z" transform="translate(1046.692 689.291)" fill="#b0b0b0"/>
    <path id="Path_111" data-name="Path 111" d="M74.4,67.58H54.863V80.841H74.4Z" transform="translate(1046.692 689.291)" fill="#b0b0b0"/>
    <path id="Path_112" data-name="Path 112" d="M100.95,67.58H81.415V80.841H100.95Z" transform="translate(1046.692 689.291)" fill="#b0b0b0"/>
    <path id="Path_113" data-name="Path 113" d="M127.5,67.58H107.968V80.841H127.5Z" transform="translate(1046.692 689.291)" fill="#b0b0b0"/>
    <path id="Path_114" data-name="Path 114" d="M154.055,67.58H134.52V80.841h19.535Z" transform="translate(1046.692 689.291)" fill="#b0b0b0"/>
    <path id="Path_115" data-name="Path 115" d="M180.608,67.58H161.073V80.841h19.535Z" transform="translate(1046.692 689.291)" fill="#b0b0b0"/>
    <path id="Path_116" data-name="Path 116" d="M111.879,27.606a2.463,2.463,0,1,0-2.466-2.463A2.464,2.464,0,0,0,111.879,27.606Z" transform="translate(1046.692 689.291)" fill="#6c63ff"/>
    <path id="Path_117" data-name="Path 117" d="M84.947,50.908a2.463,2.463,0,1,0-2.466-2.463A2.464,2.464,0,0,0,84.947,50.908Z" transform="translate(1046.692 689.291)" fill="#6c63ff"/>
    <path id="Path_118" data-name="Path 118" d="M111.879,74.21a2.463,2.463,0,1,0-2.466-2.463A2.464,2.464,0,0,0,111.879,74.21Z" transform="translate(1046.692 689.291)" fill="#6c63ff"/>
    <path id="Path_119" data-name="Path 119" d="M139,50.908a2.463,2.463,0,1,0-2.465-2.463A2.464,2.464,0,0,0,139,50.908Z" transform="translate(1046.692 689.291)" fill="#3f3d56"/>
    <path id="Path_120" data-name="Path 120" d="M165.363,50.908a2.463,2.463,0,1,0-2.465-2.463A2.464,2.464,0,0,0,165.363,50.908Z" transform="translate(1046.692 689.291)" fill="#3f3d56"/>
    <path id="Path_121" data-name="Path 121" d="M84.947,74.21a2.463,2.463,0,1,0-2.466-2.463A2.464,2.464,0,0,0,84.947,74.21Z" transform="translate(1046.692 689.291)" fill="#3f3d56"/>
    <path id="Path_122" data-name="Path 122" d="M20.3,95.27a4.574,4.574,0,1,0-4.58-4.574A4.577,4.577,0,0,0,20.3,95.27Z" transform="translate(1046.692 689.291)" fill="#ffb8b8"/>
    <path id="Path_123" data-name="Path 123" d="M18.648,117.763c-.058,0-.116,0-.174-.008a2.049,2.049,0,0,1-1.841-2.443,1.934,1.934,0,0,1,.05-.194l-6.759-7.985a1.59,1.59,0,0,1-.111-1.9l.012-.015,6.084-5.992a1.758,1.758,0,1,1,2.469,2.5l-.023.022-4.406,4.184,4.824,7.734a2.011,2.011,0,0,1,1.518.822,2.05,2.05,0,0,1-1.644,3.27Z" transform="translate(1046.692 689.291)" fill="#ffb8b8"/>
    <path id="Path_124" data-name="Path 124" d="M27.844,154.359H30.13l1.087-8.807H27.843Z" transform="translate(1046.692 689.291)" fill="#ffb8b8"/>
    <path id="Path_125" data-name="Path 125" d="M27.261,153.613h4.5a2.866,2.866,0,0,1,2.869,2.866v.093H27.261Z" transform="translate(1046.692 689.291)" fill="#2f2e41"/>
    <path id="Path_126" data-name="Path 126" d="M5.124,151.2l1.964,1.168,5.445-7.011-2.9-1.724Z" transform="translate(1046.692 689.291)" fill="#ffb8b8"/>
    <path id="Path_127" data-name="Path 127" d="M5,150.263l3.868,2.3h0a2.864,2.864,0,0,1,1,3.928h0l-.048.08-6.333-3.766Z" transform="translate(1046.692 689.291)" fill="#2f2e41"/>
    <path id="Path_128" data-name="Path 128" d="M30.669,151.248h-2.56a.836.836,0,0,1-.834-.749l-2.581-24.23a.28.28,0,0,0-.533-.085l-4.655,10.3L11.264,149.9a.843.843,0,0,1-1.053.328l-3.293-1.447a.83.83,0,0,1-.286-.206.838.838,0,0,1-.1-.991l7.577-12.672,2.324-10.677c-.731-4.63,2.4-11.514,2.434-11.583l.015-.034,8.63-3.369.043.053c3.4,11.156,5.477,23.162,3.946,41.173a.843.843,0,0,1-.836.768Z" transform="translate(1046.692 689.291)" fill="#2f2e41"/>
    <path id="Path_129" data-name="Path 129" d="M18.538,113.752l-.04-.085c-.019-.04-1.938-4.083-3.417-8.4a6.366,6.366,0,0,1,.442-5.107,6.436,6.436,0,0,1,11.609.7c1.173,2.931.8,6.06.448,8.52l-.007.049-.045.022Z" transform="translate(1046.692 689.291)" fill="#6c63ff"/>
    <path id="Path_130" data-name="Path 130" d="M25.854,88.112H18.582V84.946c1.6-.633,3.158-1.172,4.1,0a3.168,3.168,0,0,1,3.17,3.166Z" transform="translate(1046.692 689.291)" fill="#2f2e41"/>
    <path id="Path_131" data-name="Path 131" d="M18.18,84.387c-4.347,0-5.564,5.443-5.564,8.513,0,1.712.775,2.325,1.994,2.532l.43-2.292,1.008,2.391c.342,0,.7,0,1.074-.012l.342-.7.762.69c3.052,0,5.518.449,5.518-2.606C23.743,89.83,22.676,84.387,18.18,84.387Z" transform="translate(1046.692 689.291)" fill="#2f2e41"/>
    <path id="Path_132" data-name="Path 132" d="M37.5,90.479q.041.076.077.156a2.049,2.049,0,0,1-1.263,2.785,1.905,1.905,0,0,1-.2.049l-3.775,9.753a1.6,1.6,0,0,1-1.613,1.007l-.019,0-8.181-2.46A1.757,1.757,0,1,1,23.546,98.4l.031.009,5.789,1.857,4.482-7.936a1.956,1.956,0,0,1-.1-.254,2.051,2.051,0,0,1,3.756-1.6Z" transform="translate(1046.692 689.291)" fill="#ffb8b8"/>
    <path id="Path_133" data-name="Path 133" d="M38.451,156.787H.506a.2.2,0,0,1,0-.4H38.451a.2.2,0,0,1,0,.4Z" transform="translate(1046.692 689.291)" fill="#ccc"/>
  </g>
</svg>
