<svg xmlns="http://www.w3.org/2000/svg" xmlns:xlink="http://www.w3.org/1999/xlink" width="102" height="102" viewBox="0 0 102 102">
  <defs>
    <clipPath id="clip-path">
      <rect id="Rectangle_2" data-name="Rectangle 2" width="60" height="60" transform="translate(25 31)" fill="#fff"/>
    </clipPath>
  </defs>
  <g id="Group_15" data-name="Group 15" transform="translate(-5 -5)">
    <g id="Group_13" data-name="Group 13">
      <circle id="Ellipse_10" data-name="Ellipse 10" cx="51" cy="51" r="51" transform="translate(5 5)" fill="#fff"/>
      <circle id="Ellipse_11" data-name="Ellipse 11" cx="48.5" cy="48.5" r="48.5" transform="translate(7.5 7.5)" fill="none" stroke="#000" stroke-width="5"/>
    </g>
    <g id="Group_14" data-name="Group 14" clip-path="url(#clip-path)">
      <path id="Path_304" data-name="Path 304" d="M33.443,56.419h0a3.194,3.194,0,0,1,1.418.335,3.244,3.244,0,0,1,1.125.926Zm0,0H28.56a1.571,1.571,0,0,0-1.232,2.532h0L46.46,83.743h0a3.212,3.212,0,0,0,5.094,0l0,0,34.109-44.21,0,0A1.567,1.567,0,0,0,84.44,37H79.558a3.207,3.207,0,0,0-2.546,1.263l0,0-28,36.285M33.443,56.419,49.005,74.551m0,0L35.988,57.68Z" stroke="#000" stroke-width="2"/>
    </g>
  </g>
</svg>
