<svg xmlns="http://www.w3.org/2000/svg" xmlns:xlink="http://www.w3.org/1999/xlink" width="102" height="102" viewBox="0 0 102 102">
  <defs>
    <clipPath id="clip-path">
      <rect id="Rectangle_3" data-name="Rectangle 3" width="52" height="52" transform="translate(31 29)" fill="#fff"/>
    </clipPath>
  </defs>
  <g id="Group_18" data-name="Group 18" transform="translate(-5 -5)">
    <g id="Group_16" data-name="Group 16">
      <circle id="Ellipse_12" data-name="Ellipse 12" cx="51" cy="51" r="51" transform="translate(5 5)" fill="#fff"/>
      <circle id="Ellipse_13" data-name="Ellipse 13" cx="48.5" cy="48.5" r="48.5" transform="translate(7.5 7.5)" fill="none" stroke="#000" stroke-width="5"/>
    </g>
    <g id="Group_17" data-name="Group 17" clip-path="url(#clip-path)">
      <path id="Path_305" data-name="Path 305" d="M79.982,62.429H73.947V53.607a.466.466,0,0,0-.464-.464H59.089V47.571h6.268a.931.931,0,0,0,.929-.929V29.929A.931.931,0,0,0,65.357,29H48.643a.931.931,0,0,0-.928.929V46.643a.931.931,0,0,0,.928.929h6.268v5.571H40.518a.466.466,0,0,0-.464.464v8.821H34.018a.931.931,0,0,0-.928.929V80.071a.931.931,0,0,0,.928.929H50.732a.931.931,0,0,0,.929-.929V63.357a.931.931,0,0,0-.929-.929h-6.5V57.321H69.768v5.107h-6.5a.931.931,0,0,0-.928.929V80.071a.931.931,0,0,0,.928.929H79.982a.931.931,0,0,0,.929-.929V63.357A.931.931,0,0,0,79.982,62.429ZM47.25,66.839v9.75H37.5v-9.75Zm4.875-23.679v-9.75h9.75v9.75ZM76.5,76.589H66.75v-9.75H76.5Z"/>
    </g>
  </g>
</svg>
