<svg xmlns="http://www.w3.org/2000/svg" width="102" height="102" viewBox="0 0 102 102">
  <g id="Group_12" data-name="Group 12" transform="translate(-5 -5)">
    <g id="Group_11" data-name="Group 11">
      <circle id="Ellipse_8" data-name="Ellipse 8" cx="51" cy="51" r="51" transform="translate(5 5)" fill="#fff"/>
      <circle id="Ellipse_9" data-name="Ellipse 9" cx="48.5" cy="48.5" r="48.5" transform="translate(7.5 7.5)" fill="none" stroke="#000" stroke-width="5"/>
    </g>
    <path id="Path_300" data-name="Path 300" d="M56.016,67.355a18.546,18.546,0,0,0-9.826-9.826c-.02-.01-.039-.015-.059-.025a12.175,12.175,0,1,0-14.261,0c-.02.01-.039.015-.059.025A18.457,18.457,0,0,0,20.536,74.142a.393.393,0,0,0,.393.4h2.946a.392.392,0,0,0,.393-.383,14.737,14.737,0,0,1,29.464,0,.389.389,0,0,0,.393.383h2.946a.393.393,0,0,0,.393-.4A18.3,18.3,0,0,0,56.016,67.355ZM39,56.08a8.45,8.45,0,1,1,5.971-2.475A8.392,8.392,0,0,1,39,56.08Z"/>
    <path id="Path_301" data-name="Path 301" d="M52.058,61.487l-2.123,2.119.006.006Zm-5.868-3.958-1.342,2.683.085.042.087.037ZM46.13,57.5l-1.757-2.432-4.015,2.9,4.43,2.215Zm-14.261,0,1.342,2.683,4.425-2.212-4.007-2.9Zm-.059.025L32.977,60.3l.089-.038.087-.043Zm-5.868,3.958,2.119,2.124.005-.005ZM21.984,67.36l2.761,1.173v0Zm-1.449,6.782,3,.075V74.2Zm.393.4v-3h0Zm3.339-.383-3-.078v.008Zm29.464,0,3-.068v-.009Zm3.339.383v-3h0Zm.393-.4-3,.063v.012Zm1.315-7.953a21.367,21.367,0,0,0-4.6-6.827L49.94,63.612a15.368,15.368,0,0,1,3.312,4.91Zm-4.6-6.821a21.446,21.446,0,0,0-6.823-4.6L45.02,60.292a15.448,15.448,0,0,1,4.914,3.314Zm-6.65-4.522c-.094-.047-.174-.081-.227-.1l-.064-.025-.027-.01.012,0,.049.019c.044.018.114.048.2.089l-2.683,5.367c.094.047.173.081.227.1l.064.025.026.01-.012,0-.049-.019c-.044-.018-.114-.048-.2-.09Zm.356,5.091a15.152,15.152,0,0,0,6.292-12.3h-6a9.152,9.152,0,0,1-3.8,7.439Zm6.292-12.3A15.176,15.176,0,0,0,39,32.455v6a9.176,9.176,0,0,1,9.179,9.179ZM39,32.455A15.176,15.176,0,0,0,23.822,47.634h6A9.176,9.176,0,0,1,39,38.455ZM23.822,47.634a15.169,15.169,0,0,0,6.289,12.306l3.518-4.86a9.169,9.169,0,0,1-3.807-7.445Zm6.707,7.192c.084-.042.154-.072.2-.09l.049-.019.012,0-.027.01-.064.025c-.054.022-.133.056-.227.1l2.683,5.367c-.084.042-.154.072-.2.09l-.049.019-.012,0,.027-.01.064-.025c.054-.022.133-.056.227-.1Zm.117-.056a21.286,21.286,0,0,0-6.827,4.6l4.249,4.236a15.287,15.287,0,0,1,4.91-3.312Zm-6.821,4.6a21.445,21.445,0,0,0-4.6,6.823l5.526,2.338a15.446,15.446,0,0,1,3.314-4.914Zm-4.6,6.819a21.253,21.253,0,0,0-1.687,7.9l6,.116a15.253,15.253,0,0,1,1.211-5.667Zm-1.686,7.879a3.394,3.394,0,0,0,.234,1.325L23.355,73.2a2.607,2.607,0,0,1,.179,1.018Zm.234,1.325a3.393,3.393,0,0,0,.73,1.13l4.295-4.19a2.607,2.607,0,0,1,.561.868Zm.73,1.13a3.393,3.393,0,0,0,1.111.757l2.329-5.529a2.608,2.608,0,0,1,.854.582Zm1.111.757a3.392,3.392,0,0,0,1.318.266l0-6a2.607,2.607,0,0,1,1.013.2Zm1.317.266h2.946v-6H20.929Zm2.946,0a3.392,3.392,0,0,0,3.392-3.313l-6-.14a2.608,2.608,0,0,1,2.606-2.547Zm3.392-3.305A11.641,11.641,0,0,1,30.7,66.25l-4.243-4.243a17.64,17.64,0,0,0-5.189,12.076ZM30.7,66.25A11.635,11.635,0,0,1,39,62.813v-6a17.635,17.635,0,0,0-12.542,5.2ZM39,62.813a11.635,11.635,0,0,1,8.3,3.438l4.243-4.243A17.634,17.634,0,0,0,39,56.813Zm8.3,3.438a11.641,11.641,0,0,1,3.434,7.989l6-.155a17.64,17.64,0,0,0-5.189-12.076Zm3.434,7.979a3.389,3.389,0,0,0,3.392,3.315v-6a2.611,2.611,0,0,1,2.606,2.549Zm3.392,3.315h2.946v-6H54.125Zm2.945,0a3.392,3.392,0,0,0,1.318-.266l-2.329-5.529a2.607,2.607,0,0,1,1.013-.2Zm1.318-.266a3.392,3.392,0,0,0,1.111-.757l-4.295-4.19a2.608,2.608,0,0,1,.854-.582Zm1.111-.757a3.393,3.393,0,0,0,.73-1.13L54.645,73.2a2.608,2.608,0,0,1,.561-.868Zm.73-1.13a3.394,3.394,0,0,0,.234-1.325l-6,.15a2.607,2.607,0,0,1,.179-1.018Zm.234-1.312a21.3,21.3,0,0,0-1.686-7.894l-5.525,2.341A15.3,15.3,0,0,1,54.465,74.2ZM39,53.08a5.392,5.392,0,0,1-3.85-1.6l-4.243,4.243A11.392,11.392,0,0,0,39,59.08Zm-3.85-1.6a5.392,5.392,0,0,1-1.6-3.85h-6a11.391,11.391,0,0,0,3.354,8.093Zm-1.6-3.85a5.392,5.392,0,0,1,1.6-3.85l-4.243-4.243a11.392,11.392,0,0,0-3.354,8.093Zm1.6-3.85a5.392,5.392,0,0,1,3.85-1.6v-6a11.391,11.391,0,0,0-8.093,3.354Zm3.85-1.6a5.392,5.392,0,0,1,3.85,1.6l4.243-4.243A11.391,11.391,0,0,0,39,36.188Zm3.85,1.6a5.392,5.392,0,0,1,1.6,3.85h6a11.392,11.392,0,0,0-3.354-8.093Zm1.6,3.85a5.392,5.392,0,0,1-1.6,3.85l4.243,4.243a11.391,11.391,0,0,0,3.354-8.093Zm-1.6,3.85A5.392,5.392,0,0,1,39,53.08v6a11.391,11.391,0,0,0,8.093-3.354Z"/>
    <path id="Path_302" data-name="Path 302" d="M90.016,67.355a18.546,18.546,0,0,0-9.826-9.826c-.02-.01-.039-.015-.059-.025a12.175,12.175,0,1,0-14.261,0c-.02.01-.039.015-.059.025A18.457,18.457,0,0,0,54.536,74.142a.393.393,0,0,0,.393.4h2.946a.392.392,0,0,0,.393-.383,14.737,14.737,0,0,1,29.464,0,.389.389,0,0,0,.393.383h2.946a.393.393,0,0,0,.393-.4A18.3,18.3,0,0,0,90.016,67.355ZM73,56.08a8.45,8.45,0,1,1,5.971-2.475A8.392,8.392,0,0,1,73,56.08Z"/>
    <path id="Path_303" data-name="Path 303" d="M86.058,61.487l-2.124,2.119.006.006Zm-5.868-3.958-1.342,2.683.085.042.088.037ZM80.13,57.5l-1.757-2.432-4.015,2.9,4.43,2.215Zm-14.261,0,1.342,2.683,4.425-2.212-4.007-2.9Zm-.059.025L66.977,60.3l.089-.038.086-.043Zm-5.868,3.958,2.119,2.124.005-.005ZM55.984,67.36l2.761,1.173v0Zm-1.449,6.782,3,.075V74.2Zm.393.4v-3h0Zm3.339-.383-3-.078v.008Zm29.464,0,3-.068v-.009Zm3.339.383v-3h0Zm.393-.4-3,.063v.012Zm1.315-7.953a21.367,21.367,0,0,0-4.6-6.827L83.94,63.612a15.368,15.368,0,0,1,3.312,4.91Zm-4.6-6.821a21.446,21.446,0,0,0-6.823-4.6L79.02,60.292a15.448,15.448,0,0,1,4.914,3.314Zm-6.65-4.522c-.094-.047-.174-.081-.227-.1l-.064-.025-.027-.01.012,0,.049.019c.044.018.114.048.2.089l-2.683,5.367c.094.047.173.081.227.1l.064.025.026.01-.012,0-.049-.019c-.044-.018-.114-.048-.2-.09Zm.356,5.091a15.152,15.152,0,0,0,6.292-12.3h-6a9.152,9.152,0,0,1-3.8,7.439Zm6.292-12.3A15.176,15.176,0,0,0,73,32.455v6a9.176,9.176,0,0,1,9.178,9.179ZM73,32.455A15.177,15.177,0,0,0,57.821,47.634h6A9.176,9.176,0,0,1,73,38.455ZM57.821,47.634A15.169,15.169,0,0,0,64.11,59.939l3.518-4.86a9.169,9.169,0,0,1-3.807-7.445Zm6.707,7.192c.084-.042.154-.072.2-.09l.049-.019.012,0-.026.01-.064.025c-.054.022-.134.056-.227.1l2.683,5.367c-.084.042-.154.072-.2.09l-.049.019-.012,0,.027-.01.064-.025c.054-.022.133-.056.227-.1Zm.117-.056a21.286,21.286,0,0,0-6.827,4.6l4.249,4.236a15.287,15.287,0,0,1,4.91-3.312Zm-6.821,4.6a21.445,21.445,0,0,0-4.6,6.823l5.526,2.338a15.446,15.446,0,0,1,3.314-4.914Zm-4.6,6.819a21.253,21.253,0,0,0-1.687,7.9l6,.116a15.253,15.253,0,0,1,1.211-5.667Zm-1.686,7.879a3.394,3.394,0,0,0,.233,1.325L57.355,73.2a2.608,2.608,0,0,1,.179,1.018Zm.233,1.325a3.393,3.393,0,0,0,.73,1.13l4.295-4.19a2.607,2.607,0,0,1,.561.868Zm.73,1.13a3.393,3.393,0,0,0,1.111.757l2.329-5.529a2.608,2.608,0,0,1,.854.582Zm1.111.757a3.392,3.392,0,0,0,1.318.266l0-6a2.607,2.607,0,0,1,1.013.2Zm1.317.266h2.946v-6H54.929Zm2.946,0a3.392,3.392,0,0,0,3.392-3.313l-6-.14a2.608,2.608,0,0,1,2.606-2.547Zm3.392-3.305A11.641,11.641,0,0,1,64.7,66.25l-4.243-4.243a17.64,17.64,0,0,0-5.189,12.076ZM64.7,66.25A11.635,11.635,0,0,1,73,62.813v-6a17.635,17.635,0,0,0-12.542,5.2ZM73,62.813a11.635,11.635,0,0,1,8.3,3.438l4.243-4.243A17.634,17.634,0,0,0,73,56.813Zm8.3,3.438a11.641,11.641,0,0,1,3.434,7.989l6-.155a17.64,17.64,0,0,0-5.189-12.076Zm3.434,7.979a3.389,3.389,0,0,0,3.392,3.315v-6a2.611,2.611,0,0,1,2.606,2.549Zm3.392,3.315h2.946v-6H88.125Zm2.945,0a3.392,3.392,0,0,0,1.318-.266l-2.329-5.529a2.607,2.607,0,0,1,1.013-.2Zm1.318-.266a3.392,3.392,0,0,0,1.111-.757l-4.295-4.19a2.608,2.608,0,0,1,.854-.582Zm1.111-.757a3.393,3.393,0,0,0,.73-1.13L88.645,73.2a2.608,2.608,0,0,1,.561-.868Zm.73-1.13a3.394,3.394,0,0,0,.234-1.325l-6,.15a2.607,2.607,0,0,1,.179-1.018Zm.234-1.312a21.3,21.3,0,0,0-1.686-7.894l-5.525,2.341A15.3,15.3,0,0,1,88.465,74.2ZM73,53.08a5.392,5.392,0,0,1-3.85-1.6l-4.243,4.243A11.392,11.392,0,0,0,73,59.08Zm-3.85-1.6a5.392,5.392,0,0,1-1.6-3.85h-6a11.391,11.391,0,0,0,3.354,8.093Zm-1.6-3.85a5.392,5.392,0,0,1,1.6-3.85l-4.243-4.243a11.392,11.392,0,0,0-3.354,8.093Zm1.6-3.85a5.392,5.392,0,0,1,3.85-1.6v-6a11.391,11.391,0,0,0-8.093,3.354Zm3.85-1.6a5.392,5.392,0,0,1,3.85,1.6l4.243-4.243A11.391,11.391,0,0,0,73,36.188Zm3.85,1.6a5.392,5.392,0,0,1,1.6,3.85h6a11.392,11.392,0,0,0-3.354-8.093Zm1.6,3.85a5.392,5.392,0,0,1-1.6,3.85l4.243,4.243a11.391,11.391,0,0,0,3.354-8.093Zm-1.6,3.85A5.392,5.392,0,0,1,73,53.08v6a11.391,11.391,0,0,0,8.093-3.354Z"/>
  </g>
</svg>
