<svg xmlns="http://www.w3.org/2000/svg" width="364.487" height="124.5" viewBox="0 0 364.487 124.5">
  <g id="Group_3" data-name="Group 3" transform="translate(-720.513 -425)">
    <g id="Group_2" data-name="Group 2" transform="translate(646.366 46.768)">
      <ellipse id="Ellipse_1" data-name="Ellipse 1" cx="12.366" cy="18.853" rx="12.366" ry="18.853" transform="matrix(0.914, -0.407, 0.407, 0.914, 74.147, 434.758)" fill="#020202"/>
      <ellipse id="Ellipse_2" data-name="Ellipse 2" cx="13.582" cy="20.677" rx="13.582" ry="20.677" transform="translate(96.558 400.409) rotate(-17)" fill="#020202"/>
      <ellipse id="Ellipse_3" data-name="Ellipse 3" cx="13.582" cy="20.677" rx="13.582" ry="20.677" transform="translate(143.889 392.232) rotate(18)" fill="#020202"/>
      <ellipse id="Ellipse_4" data-name="Ellipse 4" cx="13.582" cy="20.677" rx="13.582" ry="20.677" transform="translate(166.188 421.48) rotate(18)" fill="#020202"/>
      <path id="Subtraction_1" data-name="Subtraction 1" d="M12.529,50.429a14.587,14.587,0,0,1-4.575-.69A13.364,13.364,0,0,1,5.037,48.38a15.321,15.321,0,0,1-2.774-2.23C.723,44.6-.038,42.326,0,39.4a24.746,24.746,0,0,1,1.3-7.091A46.741,46.741,0,0,1,4.66,24.527a60.37,60.37,0,0,1,4.845-7.6,52.831,52.831,0,0,1,5.754-6.554c5.174-4.944,7.7-7.242,10.171-8.5A12.807,12.807,0,0,1,29.4.66c1.5-.235,3.311-.35,5.6-.5h0l.045,0L36.688.055C37.236.018,37.775,0,38.292,0a17.183,17.183,0,0,1,5.383.8c4.59,1.491,7.522,4.922,10.918,8.893.923,1.079,1.876,2.194,2.91,3.325A68.422,68.422,0,0,1,69.531,31.657a37.312,37.312,0,0,1,2.6,8.518,15.656,15.656,0,0,1,.194,3.42A7.078,7.078,0,0,1,71.7,46.2a6.379,6.379,0,0,1-1.555,2.042,7.365,7.365,0,0,1-2.208,1.3,13.928,13.928,0,0,1-4.944.775c-.321,0-.653-.007-.989-.021-3.7-.157-8.372-1.165-14.272-3.082-2.272-.738-4.346-1.483-6.176-2.139-1.327-.476-2.473-.887-3.385-1.183a5.342,5.342,0,0,0-1.648-.239c-2.495,0-5.668,1.3-9.343,2.807h0a64.546,64.546,0,0,1-9.521,3.323A22.733,22.733,0,0,1,12.529,50.429ZM35.5,11.188h-.047a6.513,6.513,0,0,0-3.877,1.687,20.692,20.692,0,0,0-3.408,3.651,40.337,40.337,0,0,0-3.345,5.292s-.167.163-.247.246A7.342,7.342,0,1,0,35.2,32.2a7.519,7.519,0,0,0,10.63-10.63,37.8,37.8,0,0,0-3.2-5.19,19.415,19.415,0,0,0-3.306-3.568A6.28,6.28,0,0,0,35.5,11.189Z" transform="translate(98.02 450.36)" fill="#020202"/>
    </g>
    <text id="_Small_Paws" data-name="
Small Paws" transform="translate(868 462)" fill="#ee9ca7" font-size="40" font-family="Kefa-Bold, Kefa" font-weight="700"><tspan x="0" y="0"></tspan><tspan x="0" y="46">Small Paws</tspan></text>
    <line id="Line_1" data-name="Line 1" y2="108" transform="translate(850.5 439.5)" fill="none" stroke="#707070" stroke-linecap="round" stroke-width="4"/>
  </g>
</svg>
